<svg width="16" height="16" viewBox="0 0 16 16" fill="none" xmlns="http://www.w3.org/2000/svg">
<path d="M0.367199 10.0118C1.2462 10.8684 1.58534 10.9934 2.32592 12.2873C3.53022 14.4111 3.35719 15.2856 3.71018 15.6871C4.07008 16.0887 5.71043 16.4189 6.82475 14.5717C7.946 12.7245 9.69017 7.62919 11.9257 4.57735C14.1613 1.53443 15.2064 0.642078 15.8778 0.186979C16.5492 -0.277044 14.4243 -0.178886 10.2439 4.1044C7.33693 7.08486 5.28131 11.1986 5.28131 11.1986C5.28131 11.1986 4.69992 8.94987 3.40564 7.45072C2.11136 5.95157 -1.08627 8.59293 0.37412 10.0207L0.367199 10.0118Z" fill="#B3C925"/>
</svg>
