<svg width="70" height="70" viewBox="0 0 70 70" fill="none" xmlns="http://www.w3.org/2000/svg">
<path d="M59.0296 24.8695L49.6933 2.90379H38.0757L36.6977 0H22.0486C12.8008 0 5.27734 7.52355 5.27734 16.7711C5.27734 26.0187 12.8009 33.5423 22.0486 33.5423H26.0739V58.2849C26.0739 63.1172 28.826 67.4338 33.2561 69.5502L34.1974 70L50.3828 62.079L56.6127 40.8682L64.7201 33.6579V24.8695H59.0296ZM60.405 31.7209L52.8209 38.4657L46.7784 59.039L34.24 65.1751C31.8419 63.6707 30.3889 61.11 30.3889 58.285V29.2272H22.0485C15.1803 29.2272 9.59232 23.6394 9.59232 16.7711C9.59232 9.90291 15.1801 4.31512 22.0486 4.31512H33.9693L35.3471 7.21891H46.8388L56.175 29.1846H60.4049V31.7209H60.405Z" fill="#008024"/>
<path d="M60.2926 61.1667L56.1523 59.9507L59.6644 47.9922L63.8046 49.2082L60.2926 61.1667Z" fill="#008024"/>
</svg>
