<svg width="70" height="70" viewBox="0 0 70 70" fill="none" xmlns="http://www.w3.org/2000/svg">
<path d="M40.8333 60.5221C35.7858 60.5221 30.8516 59.0254 26.6547 56.2211C22.4579 53.4168 19.1868 49.431 17.2552 44.7677C15.3236 40.1044 14.8182 34.973 15.8029 30.0224C16.7876 25.0719 19.2182 20.5245 22.7874 16.9554C26.3565 13.3862 30.9039 10.9556 35.8545 9.97086C40.805 8.98613 45.9364 9.49153 50.5998 11.4231C55.2631 13.3547 59.2489 16.6258 62.0531 20.8227C64.8574 25.0196 66.3542 29.9538 66.3542 35.0013C66.3465 41.7675 63.6552 48.2543 58.8708 53.0387C54.0864 57.8232 47.5995 60.5144 40.8333 60.5221ZM40.8333 13.8555C36.6511 13.8555 32.5628 15.0957 29.0853 17.4192C25.6079 19.7427 22.8976 23.0453 21.2971 26.9092C19.6967 30.773 19.2779 35.0248 20.0938 39.1267C20.9097 43.2285 22.9237 46.9964 25.881 49.9537C28.8383 52.911 32.6061 54.9249 36.708 55.7408C40.8099 56.5568 45.0616 56.138 48.9255 54.5375C52.7894 52.937 56.0919 50.2267 58.4155 46.7493C60.739 43.2719 61.9792 39.1836 61.9792 35.0013C61.973 29.395 59.7432 24.02 55.7789 20.0558C51.8146 16.0915 46.4397 13.8617 40.8333 13.8555Z" fill="#008024"/>
<path d="M40.834 51.7721C40.2538 51.7721 39.6974 51.5417 39.2872 51.1314C38.877 50.7212 38.6465 50.1648 38.6465 49.5846V20.418C38.6465 19.8378 38.877 19.2814 39.2872 18.8712C39.6974 18.4609 40.2538 18.2305 40.834 18.2305C41.4141 18.2305 41.9705 18.4609 42.3808 18.8712C42.791 19.2814 43.0215 19.8378 43.0215 20.418V49.5846C43.0215 50.1648 42.791 50.7212 42.3808 51.1314C41.9705 51.5417 41.4141 51.7721 40.834 51.7721Z" fill="#008024"/>
<path d="M29.1667 16.7734H8.75C8.16984 16.7734 7.61344 16.543 7.2032 16.1327C6.79297 15.7225 6.5625 15.1661 6.5625 14.5859C6.5625 14.0058 6.79297 13.4494 7.2032 13.0391C7.61344 12.6289 8.16984 12.3984 8.75 12.3984H29.1667C29.7468 12.3984 30.3032 12.6289 30.7135 13.0391C31.1237 13.4494 31.3542 14.0058 31.3542 14.5859C31.3542 15.1661 31.1237 15.7225 30.7135 16.1327C30.3032 16.543 29.7468 16.7734 29.1667 16.7734Z" fill="#008024"/>
<path d="M20.418 25.5234H11.668C11.0878 25.5234 10.5314 25.293 10.1212 24.8827C9.71094 24.4725 9.48047 23.9161 9.48047 23.3359C9.48047 22.7558 9.71094 22.1994 10.1212 21.7891C10.5314 21.3789 11.0878 21.1484 11.668 21.1484H20.418C20.9981 21.1484 21.5545 21.3789 21.9648 21.7891C22.375 22.1994 22.6055 22.7558 22.6055 23.3359C22.6055 23.9161 22.375 24.4725 21.9648 24.8827C21.5545 25.293 20.9981 25.5234 20.418 25.5234Z" fill="#008024"/>
<path d="M20.418 48.8555H11.668C11.0878 48.8555 10.5314 48.625 10.1212 48.2148C9.71094 47.8045 9.48047 47.2481 9.48047 46.668C9.48047 46.0878 9.71094 45.5314 10.1212 45.1212C10.5314 44.7109 11.0878 44.4805 11.668 44.4805H20.418C20.9981 44.4805 21.5545 44.7109 21.9648 45.1212C22.375 45.5314 22.6055 46.0878 22.6055 46.668C22.6055 47.2481 22.375 47.8045 21.9648 48.2148C21.5545 48.625 20.9981 48.8555 20.418 48.8555Z" fill="#008024"/>
<path d="M17.5007 37.1875H5.83398C5.25382 37.1875 4.69742 36.957 4.28719 36.5468C3.87695 36.1366 3.64648 35.5802 3.64648 35C3.64648 34.4198 3.87695 33.8634 4.28719 33.4532C4.69742 33.043 5.25382 32.8125 5.83398 32.8125H17.5007C18.0808 32.8125 18.6372 33.043 19.0474 33.4532C19.4577 33.8634 19.6882 34.4198 19.6882 35C19.6882 35.5802 19.4577 36.1366 19.0474 36.5468C18.6372 36.957 18.0808 37.1875 17.5007 37.1875Z" fill="#008024"/>
<path d="M29.1673 57.6055H5.83398C5.25382 57.6055 4.69742 57.375 4.28719 56.9648C3.87695 56.5545 3.64648 55.9981 3.64648 55.418C3.64648 54.8378 3.87695 54.2814 4.28719 53.8712C4.69742 53.4609 5.25382 53.2305 5.83398 53.2305H29.1673C29.7475 53.2305 30.3039 53.4609 30.7141 53.8712C31.1243 54.2814 31.3548 54.8378 31.3548 55.418C31.3548 55.9981 31.1243 56.5545 30.7141 56.9648C30.3039 57.375 29.7475 57.6055 29.1673 57.6055Z" fill="#008024"/>
<path d="M40.8333 37.1901C39.247 37.1901 37.6962 36.7197 36.3772 35.8384C35.0582 34.957 34.0301 33.7043 33.4231 32.2387C32.816 30.7731 32.6571 29.1604 32.9666 27.6045C33.2761 26.0486 34.04 24.6194 35.1618 23.4977C36.2835 22.376 37.7127 21.612 39.2686 21.3026C40.8244 20.9931 42.4372 21.1519 43.9028 21.759C45.3684 22.3661 46.6211 23.3941 47.5024 24.7131C48.3838 26.0322 48.8542 27.5829 48.8542 29.1693C48.8542 29.7494 48.6237 30.3058 48.2135 30.7161C47.8032 31.1263 47.2468 31.3568 46.6667 31.3568C46.0865 31.3568 45.5301 31.1263 45.1199 30.7161C44.7096 30.3058 44.4792 29.7494 44.4792 29.1693C44.4792 28.4482 44.2653 27.7433 43.8647 27.1438C43.4641 26.5442 42.8947 26.0769 42.2285 25.801C41.5623 25.525 40.8293 25.4528 40.1221 25.5935C39.4148 25.7342 38.7652 26.0814 38.2553 26.5913C37.7455 27.1012 37.3982 27.7508 37.2576 28.458C37.1169 29.1652 37.1891 29.8983 37.465 30.5645C37.741 31.2307 38.2083 31.8001 38.8078 32.2007C39.4074 32.6013 40.1123 32.8151 40.8333 32.8151C41.4135 32.8151 41.9699 33.0456 42.3801 33.4558C42.7904 33.866 43.0208 34.4224 43.0208 35.0026C43.0208 35.5828 42.7904 36.1392 42.3801 36.5494C41.9699 36.9596 41.4135 37.1901 40.8333 37.1901Z" fill="#008024"/>
<path d="M40.8333 48.8542C38.7066 48.8526 36.6673 48.0071 35.1635 46.5032C33.6596 44.9993 32.814 42.9601 32.8125 40.8333C32.8125 40.2532 33.043 39.6968 33.4532 39.2865C33.8634 38.8763 34.4198 38.6458 35 38.6458C35.5802 38.6458 36.1366 38.8763 36.5468 39.2865C36.957 39.6968 37.1875 40.2532 37.1875 40.8333C37.1875 41.5544 37.4013 42.2593 37.8019 42.8589C38.2025 43.4584 38.7719 43.9257 39.4381 44.2016C40.1043 44.4776 40.8374 44.5498 41.5446 44.4091C42.2518 44.2684 42.9014 43.9212 43.4113 43.4113C43.9212 42.9014 44.2684 42.2518 44.4091 41.5446C44.5498 40.8374 44.4776 40.1043 44.2016 39.4381C43.9257 38.7719 43.4584 38.2025 42.8589 37.8019C42.2593 37.4013 41.5544 37.1875 40.8333 37.1875C40.2532 37.1875 39.6968 36.957 39.2865 36.5468C38.8763 36.1366 38.6458 35.5802 38.6458 35C38.6458 34.4198 38.8763 33.8634 39.2865 33.4532C39.6968 33.043 40.2532 32.8125 40.8333 32.8125C42.9606 32.8125 45.0007 33.6575 46.5049 35.1617C48.0091 36.6659 48.8542 38.7061 48.8542 40.8333C48.8542 42.9606 48.0091 45.0007 46.5049 46.5049C45.0007 48.0091 42.9606 48.8542 40.8333 48.8542Z" fill="#008024"/>
</svg>
