<svg width="71" height="70" viewBox="0 0 71 70" fill="none" xmlns="http://www.w3.org/2000/svg">
<path d="M61.9167 63.4375H9.41667C8.06532 63.4298 6.7715 62.8896 5.81594 61.9341C4.86037 60.9785 4.32016 59.6847 4.3125 58.3333V17.5C4.32005 16.9222 4.55295 16.3702 4.96156 15.9616C5.37017 15.5529 5.92219 15.3201 6.5 15.3125H64.8333C65.4112 15.3201 65.9632 15.5529 66.3718 15.9616C66.7804 16.3702 67.0133 16.9222 67.0208 17.5V58.3333C67.0132 59.6847 66.473 60.9785 65.5174 61.9341C64.5618 62.8896 63.268 63.4298 61.9167 63.4375ZM8.6875 19.6875V58.3333C8.6875 58.5267 8.76432 58.7122 8.90107 58.8489C9.03781 58.9857 9.22328 59.0625 9.41667 59.0625H61.9167C62.1101 59.0625 62.2955 58.9857 62.4323 58.8489C62.569 58.7122 62.6458 58.5267 62.6458 58.3333V19.6875H8.6875Z" fill="#7DA536"/>
<path d="M64.8333 19.6875H6.49991C6.10313 19.6868 5.71402 19.5781 5.37424 19.3732C5.03446 19.1683 4.75681 18.8749 4.57102 18.5243C4.38523 18.1737 4.29831 17.7791 4.31954 17.3829C4.34078 16.9867 4.46938 16.6037 4.69158 16.275L10.0874 8.19583C10.4063 7.70901 10.8379 7.30632 11.3457 7.02197C11.8535 6.73762 12.4224 6.58 13.0041 6.5625H58.2124C58.7941 6.58 59.363 6.73762 59.8708 7.02197C60.3786 7.30632 60.8102 7.70901 61.1291 8.19583L66.5249 16.275C66.7424 16.5956 66.8709 16.9681 66.8972 17.3546C66.9235 17.7411 66.8467 18.1277 66.6747 18.4748C66.5026 18.8219 66.2415 19.117 65.9179 19.3301C65.5944 19.5432 65.2201 19.6665 64.8333 19.6875ZM10.5832 15.3125H60.7499L57.8333 10.9375H13.4999L10.5832 15.3125Z" fill="#7DA536"/>
<path d="M44.416 40.1042C43.9781 40.1086 43.5498 39.976 43.191 39.725L35.666 34.7083L28.141 39.725C27.8123 39.9472 27.4293 40.0758 27.0331 40.097C26.6369 40.1183 26.2423 40.0313 25.8917 39.8456C25.5411 39.6598 25.2477 39.3821 25.0428 39.0423C24.8379 38.7026 24.7292 38.3134 24.7285 37.9167V17.5C24.7361 16.9222 24.969 16.3702 25.3776 15.9616C25.7862 15.5529 26.3382 15.3201 26.916 15.3125H44.416C44.9938 15.3201 45.5458 15.5529 45.9545 15.9616C46.3631 16.3702 46.596 16.9222 46.6035 17.5V37.9167C46.596 38.4945 46.3631 39.0465 45.9545 39.4551C45.5458 39.8637 44.9938 40.0966 44.416 40.1042ZM35.666 29.8958C36.1039 29.8914 36.5322 30.024 36.891 30.275L42.2285 33.8333V19.6875H29.1035V33.8333L34.441 30.275C34.7998 30.024 35.2281 29.8914 35.666 29.8958Z" fill="#7DA536"/>
</svg>
