<svg width="71" height="70" viewBox="0 0 71 70" fill="none" xmlns="http://www.w3.org/2000/svg">
<path d="M35.5 0C16.1707 0 0.5 15.6707 0.5 35C0.5 54.3293 16.1707 70 35.5 70C54.8293 70 70.5 54.3293 70.5 35C70.5 15.6707 54.8293 0 35.5 0ZM56.4508 19.5959L47.1799 42.2502C46.3568 44.26 44.7613 45.8568 42.7516 46.6785L20.0973 55.9494C16.6451 57.3631 13.1752 53.9629 14.5178 50.482L23.3744 27.5146C24.1975 25.3805 25.8846 23.6934 28.0174 22.8717L50.9848 14.015C54.4656 12.6725 57.8658 16.1424 56.4521 19.5945L56.4508 19.5959Z" fill="#008024"/>
<path d="M35.5 0C16.1707 0 0.5 15.6707 0.5 35C0.5 54.3293 16.1707 70 35.5 70C54.8293 70 70.5 54.3293 70.5 35C70.5 15.6707 54.8293 0 35.5 0ZM56.4508 19.5959L47.1799 42.2502C46.3568 44.26 44.7613 45.8568 42.7516 46.6785L20.0973 55.9494C16.6451 57.3631 13.1752 53.9629 14.5178 50.482L23.3744 27.5146C24.1975 25.3805 25.8846 23.6934 28.0174 22.8717L50.9848 14.015C54.4656 12.6725 57.8658 16.1424 56.4521 19.5945L56.4508 19.5959Z" fill="#008024"/>
<path d="M35.4996 41.2126C38.9307 41.2126 41.7121 38.4312 41.7121 35.0001C41.7121 31.569 38.9307 28.7876 35.4996 28.7876C32.0685 28.7876 29.2871 31.569 29.2871 35.0001C29.2871 38.4312 32.0685 41.2126 35.4996 41.2126Z" fill="#008024"/>
</svg>
