<svg width="71" height="70" viewBox="0 0 71 70" fill="none" xmlns="http://www.w3.org/2000/svg">
<path d="M69.0024 8.00389C67.7557 7.72091 66.4214 7.45707 65.038 7.20143C64.6041 7.11894 64.205 6.90782 63.8927 6.5955C63.5804 6.28319 63.3693 5.88414 63.2868 5.45023C63.0298 4.06266 62.7659 2.72978 62.4843 1.48576C62.148 -0.0576473 59.7174 -0.477334 58.3831 0.572566C55.5246 2.89656 51.8964 6.38803 49.4303 9.10847C48.9545 9.63206 48.7604 10.4195 48.8903 11.2014C49.2211 13.1618 49.5109 15.1304 49.7898 17.0306L33.6613 33.1509C33.1758 33.6384 32.9036 34.2985 32.9043 34.9864C32.905 35.6744 33.1786 36.334 33.6651 36.8204C34.1515 37.3069 34.8111 37.5805 35.499 37.5812C36.187 37.5819 36.8471 37.3096 37.3345 36.8242L53.4576 20.7011C55.3578 20.9745 57.325 21.2685 59.2868 21.5993C60.0673 21.7292 60.8561 21.535 61.3797 21.0607C64.0988 18.6 67.5889 14.9663 69.9143 12.1078C70.9642 10.7708 70.5458 8.33882 69.0024 8.00389Z" fill="#008024"/>
<path d="M63.032 22.8832C62.2658 23.5662 61.2997 23.9837 60.2773 24.0739C62.814 29.8424 63.2549 36.316 61.5238 42.3752C59.7926 48.4343 55.9984 53.6979 50.7971 57.2557C45.5959 60.8134 39.3149 62.4415 33.0403 61.8584C26.7658 61.2753 20.8923 58.5177 16.4357 54.0624C11.9792 49.6072 9.2198 43.7345 8.63484 37.4601C8.04989 31.1858 9.67613 24.9042 13.2323 19.702C16.7885 14.4997 22.051 10.7039 28.1096 8.97093C34.1683 7.23801 40.642 7.67699 46.4113 10.212C46.5035 9.18911 46.9202 8.22252 47.6006 7.45323C48.6478 6.29806 49.9 5.00893 51.2165 3.72253C46.3403 1.26794 40.9558 -0.00712709 35.4967 2.99639e-05C16.1692 2.99639e-05 0.5 15.6692 0.5 34.9967C0.5 54.3242 16.1692 69.9934 35.4967 69.9934C54.8241 69.9934 70.4934 54.3242 70.4934 34.9967C70.5003 29.5329 69.2229 24.1439 66.764 19.2646C65.4776 20.5824 64.1871 21.836 63.032 22.8832Z" fill="#008024"/>
<path d="M46.0226 31.6091C46.7849 33.9735 46.73 36.5256 45.8667 38.855C45.0034 41.1844 43.3818 43.1559 41.2627 44.4524C39.1436 45.749 36.6501 46.2952 34.183 46.0034C31.7159 45.7116 29.4186 44.5987 27.6605 42.8435C25.9023 41.0884 24.7855 38.7931 24.4894 36.3265C24.1934 33.8599 24.7353 31.3655 26.0282 29.2441C27.3211 27.1228 29.2898 25.4978 31.6177 24.6305C33.9456 23.7632 36.4976 23.7039 38.8634 24.4621L44.8552 18.4703C40.8579 16.2054 36.1751 15.4665 31.6746 16.3905C27.1742 17.3145 23.1613 19.8387 20.3798 23.4953C17.5982 27.1519 16.2367 31.6929 16.5474 36.2767C16.8582 40.8605 18.8202 45.1762 22.0698 48.4239C25.3194 51.6717 29.6362 53.6312 34.2202 53.9393C38.8041 54.2474 43.3444 52.8833 46.9994 50.0996C50.6544 47.316 53.1763 43.3017 54.0977 38.8007C55.0191 34.2997 54.2775 29.6173 52.0103 25.6214L46.0226 31.6091Z" fill="#008024"/>
</svg>
