<svg width="71" height="70" viewBox="0 0 71 70" fill="none" xmlns="http://www.w3.org/2000/svg">
<g clip-path="url(#clip0_1084_5367)">
<path d="M60.401 45.226C56.5911 41.4162 52.0561 38.5957 47.1083 36.8884C52.4076 33.2385 55.8892 27.1302 55.8892 20.223C55.8892 9.07211 46.817 0 35.6661 0C24.5152 0 15.4431 9.07211 15.4431 20.223C15.4431 27.1301 18.9246 33.2384 24.224 36.8884C19.2761 38.5956 14.7413 41.4159 10.9312 45.226C4.32418 51.8331 0.685547 60.6174 0.685547 69.961H6.15129C6.15129 54.804 17.6365 42.2811 32.3607 40.6324L27.1755 61.5084L35.6661 70L44.1559 61.5083L38.9713 40.6323C53.6955 42.281 65.1807 54.804 65.1807 69.961H70.6464C70.6464 60.6173 67.0078 51.8329 60.401 45.226ZM35.6659 62.2698L33.2246 59.8281L35.6659 49.9991L38.1068 59.8281L35.6659 62.2698ZM35.666 34.9806C27.5286 34.9806 20.9086 28.3604 20.9086 20.2233C20.9086 12.0861 27.5286 5.46588 35.666 5.46588C43.8034 5.46588 50.4234 12.0859 50.4234 20.2232C50.4234 28.3604 43.8034 34.9806 35.666 34.9806Z" fill="#7DA536"/>
</g>
<defs>
<clipPath id="clip0_1084_5367">
<rect width="70" height="70" fill="white" transform="translate(0.666016)"/>
</clipPath>
</defs>
</svg>
