<svg width="71" height="70" viewBox="0 0 71 70" fill="none" xmlns="http://www.w3.org/2000/svg">
<path d="M35.5 0C16.1707 0 0.5 15.6707 0.5 35C0.5 54.3293 16.1707 70 35.5 70C54.8293 70 70.5 54.3293 70.5 35C70.5 15.6707 54.8293 0 35.5 0ZM35.485 58.7412C34.36 58.7412 33.2604 58.4077 32.325 57.7828C31.3896 57.158 30.6604 56.2698 30.2297 55.2306C29.7989 54.1915 29.6859 53.0479 29.905 51.9445C30.1241 50.8411 30.6653 49.8275 31.4604 49.0316C32.2554 48.2358 33.2686 47.6936 34.3718 47.4735C35.4749 47.2533 36.6186 47.3652 37.6582 47.7949C38.6978 48.2247 39.5867 48.953 40.2124 49.8878C40.8382 50.8226 41.1727 51.922 41.1738 53.0469C41.1745 53.7944 41.0279 54.5348 40.7424 55.2256C40.4568 55.9164 40.0379 56.5442 39.5095 57.073C38.9812 57.6019 38.3538 58.0214 37.6633 58.3076C36.9727 58.5939 36.2325 58.7412 35.485 58.7412ZM40.9988 39.1494C40.9031 40.0285 40.506 40.8473 39.875 41.4668C39.2357 42.0907 38.4039 42.4796 37.5152 42.5701H37.4893C36.9319 42.6339 36.3713 42.6658 35.8103 42.6658C35.1378 42.6693 34.4656 42.6373 33.7965 42.5701H33.7691C32.881 42.4793 32.0497 42.0904 31.4107 41.4668C30.7797 40.8473 30.3826 40.0285 30.2869 39.1494C30.1502 37.8656 30.0818 28.9502 30.0818 26.9637C30.0818 24.9771 30.1516 16.0385 30.2869 14.7547C30.3811 13.8732 30.7783 13.0517 31.4107 12.4305C32.0503 11.8077 32.8812 11.4189 33.7691 11.3271H33.7965C34.4656 11.2603 35.1384 11.2398 35.8103 11.2656C36.3703 11.2397 36.9314 11.2603 37.4879 11.3271H37.5152C38.405 11.4216 39.2367 11.8144 39.875 12.4414C40.5074 13.0626 40.9046 13.8841 40.9988 14.7656C41.1355 16.0494 41.2039 24.9895 41.2039 26.9746C41.2039 28.9598 41.1342 37.8711 40.9988 39.1494Z" fill="#008024"/>
</svg>
