<svg width="70" height="70" viewBox="0 0 70 70" fill="none" xmlns="http://www.w3.org/2000/svg">
<path d="M34.9987 66.3529C28.7974 66.3529 22.7354 64.514 17.5793 61.0688C12.4231 57.6235 8.40436 52.7267 6.03124 46.9974C3.65812 41.2682 3.0372 34.9639 4.24701 28.8818C5.45681 22.7997 8.44301 17.2129 12.828 12.828C17.2129 8.44301 22.7997 5.45681 28.8818 4.24701C34.9639 3.0372 41.2682 3.65812 46.9974 6.03124C52.7267 8.40436 57.6235 12.4231 61.0688 17.5793C64.514 22.7354 66.3529 28.7974 66.3529 34.9987C66.3436 43.3115 63.0373 51.2812 57.1592 57.1592C51.2812 63.0373 43.3115 66.3436 34.9987 66.3529ZM34.9987 8.01955C29.6627 8.01955 24.4466 9.60185 20.0099 12.5664C15.5732 15.5309 12.1152 19.7444 10.0732 24.6742C8.03122 29.604 7.49695 35.0286 8.53794 40.2621C9.57894 45.4955 12.1485 50.3028 15.9216 54.0759C19.6947 57.849 24.5019 60.4185 29.7353 61.4595C34.9688 62.5005 40.3934 61.9662 45.3232 59.9242C50.253 57.8822 54.4666 54.4242 57.4311 49.9875C60.3956 45.5508 61.9779 40.3347 61.9779 34.9987C61.9702 27.8458 59.1253 20.988 54.0673 15.9301C49.0094 10.8722 42.1517 8.02727 34.9987 8.01955Z" fill="#008024"/>
<path d="M49.5834 43.0208C49.3054 43.0214 49.0301 42.9679 48.7725 42.8633L34.1892 37.03C33.7808 36.8679 33.4309 36.5863 33.1853 36.222C32.9397 35.8577 32.8097 35.4277 32.8125 34.9883V17.5C32.8125 16.9198 33.043 16.3634 33.4532 15.9532C33.8635 15.543 34.4199 15.3125 35 15.3125C35.5802 15.3125 36.1366 15.543 36.5468 15.9532C36.9571 16.3634 37.1875 16.9198 37.1875 17.5V33.5183L50.3942 38.7917C50.8732 38.9758 51.2722 39.3224 51.5214 39.771C51.7706 40.2195 51.8543 40.7414 51.7576 41.2454C51.661 41.7493 51.3903 42.2033 50.9929 42.5278C50.5954 42.8524 50.0965 43.0269 49.5834 43.0208Z" fill="#008024"/>
</svg>
