<svg width="70" height="70" viewBox="0 0 70 70" fill="none" xmlns="http://www.w3.org/2000/svg">
<path d="M35 37.7344C33.7561 37.7344 32.5402 37.3655 31.506 36.6745C30.4718 35.9834 29.6657 35.0012 29.1897 33.852C28.7137 32.7029 28.5891 31.4383 28.8318 30.2184C29.0744 28.9984 29.6734 27.8778 30.553 26.9983C31.4325 26.1187 32.5531 25.5198 33.7731 25.2771C34.993 25.0344 36.2575 25.159 37.4067 25.635C38.5559 26.111 39.5381 26.9171 40.2292 27.9513C40.9202 28.9855 41.2891 30.2015 41.2891 31.4453C41.2891 32.0255 41.0586 32.5819 40.6484 32.9921C40.2381 33.4023 39.6817 33.6328 39.1016 33.6328C38.5214 33.6328 37.965 33.4023 37.5548 32.9921C37.1445 32.5819 36.9141 32.0255 36.9141 31.4453C36.9141 31.0668 36.8018 30.6967 36.5915 30.3819C36.3812 30.0672 36.0822 29.8218 35.7325 29.677C35.3827 29.5321 34.9979 29.4942 34.6266 29.568C34.2553 29.6419 33.9142 29.8242 33.6466 30.0919C33.3789 30.3596 33.1966 30.7006 33.1227 31.0719C33.0489 31.4432 33.0868 31.828 33.2316 32.1778C33.3765 32.5275 33.6218 32.8265 33.9366 33.0368C34.2514 33.2471 34.6214 33.3594 35 33.3594C35.5802 33.3594 36.1366 33.5898 36.5468 34.0001C36.957 34.4103 37.1875 34.9667 37.1875 35.5469C37.1875 36.127 36.957 36.6834 36.5468 37.0937C36.1366 37.5039 35.5802 37.7344 35 37.7344Z" fill="#7DA536"/>
<path d="M35 45.9375C33.3327 45.9352 31.7344 45.2718 30.5555 44.0929C29.3766 42.914 28.7133 41.3157 28.7109 39.6484C28.7109 39.0683 28.9414 38.5119 29.3516 38.1016C29.7619 37.6914 30.3183 37.4609 30.8984 37.4609C31.4786 37.4609 32.035 37.6914 32.4452 38.1016C32.8555 38.5119 33.0859 39.0683 33.0859 39.6484C33.0859 40.027 33.1982 40.3971 33.4085 40.7118C33.6188 41.0266 33.9178 41.2719 34.2675 41.4168C34.6173 41.5617 35.0021 41.5996 35.3734 41.5257C35.7447 41.4519 36.0858 41.2696 36.3534 41.0019C36.6211 40.7342 36.8034 40.3931 36.8773 40.0219C36.9511 39.6506 36.9132 39.2657 36.7684 38.916C36.6235 38.5662 36.3782 38.2673 36.0634 38.057C35.7486 37.8466 35.3786 37.7344 35 37.7344C34.4198 37.7344 33.8634 37.5039 33.4532 37.0937C33.043 36.6834 32.8125 36.127 32.8125 35.5469C32.8125 34.9667 33.043 34.4103 33.4532 34.0001C33.8634 33.5898 34.4198 33.3594 35 33.3594C36.668 33.3594 38.2676 34.022 39.447 35.2014C40.6265 36.3808 41.2891 37.9805 41.2891 39.6484C41.2891 41.3164 40.6265 42.916 39.447 44.0955C38.2676 45.2749 36.668 45.9375 35 45.9375Z" fill="#7DA536"/>
<path d="M35 29.5312C34.4198 29.5312 33.8634 29.3008 33.4532 28.8905C33.043 28.4803 32.8125 27.9239 32.8125 27.3438V24.6094C32.8125 24.0292 33.043 23.4728 33.4532 23.0626C33.8634 22.6523 34.4198 22.4219 35 22.4219C35.5802 22.4219 36.1366 22.6523 36.5468 23.0626C36.957 23.4728 37.1875 24.0292 37.1875 24.6094V27.3438C37.1875 27.9239 36.957 28.4803 36.5468 28.8905C36.1366 29.3008 35.5802 29.5312 35 29.5312Z" fill="#7DA536"/>
<path d="M35 48.6719C34.4198 48.6719 33.8634 48.4414 33.4532 48.0312C33.043 47.6209 32.8125 47.0645 32.8125 46.4844V43.75C32.8125 43.1698 33.043 42.6134 33.4532 42.2032C33.8634 41.793 34.4198 41.5625 35 41.5625C35.5802 41.5625 36.1366 41.793 36.5468 42.2032C36.957 42.6134 37.1875 43.1698 37.1875 43.75V46.4844C37.1875 47.0645 36.957 47.6209 36.5468 48.0312C36.1366 48.4414 35.5802 48.6719 35 48.6719Z" fill="#7DA536"/>
<path d="M35 55.7813C30.8899 55.7813 26.872 54.5625 23.4546 52.279C20.0371 49.9955 17.3735 46.7499 15.8006 42.9526C14.2278 39.1554 13.8162 34.977 14.6181 30.9458C15.4199 26.9146 17.3991 23.2118 20.3054 20.3054C23.2118 17.3991 26.9146 15.4199 30.9458 14.6181C34.977 13.8162 39.1554 14.2278 42.9526 15.8006C46.7499 17.3735 49.9955 20.0371 52.279 23.4546C54.5625 26.872 55.7813 30.8899 55.7813 35C55.7749 40.5096 53.5834 45.7917 49.6875 49.6875C45.7917 53.5834 40.5096 55.7749 35 55.7813ZM35 18.5938C31.7552 18.5938 28.5832 19.556 25.8852 21.3587C23.1872 23.1615 21.0844 25.7238 19.8426 28.7216C18.6009 31.7195 18.276 35.0182 18.909 38.2007C19.542 41.3832 21.1046 44.3065 23.399 46.601C25.6935 48.8954 28.6168 50.458 31.7993 51.091C34.9818 51.7241 38.2806 51.3992 41.2784 50.1574C44.2763 48.9157 46.8386 46.8128 48.6413 44.1148C50.444 41.4168 51.4063 38.2449 51.4063 35C51.4016 30.6502 49.6716 26.4799 46.5959 23.4042C43.5201 20.3284 39.3498 18.5984 35 18.5938Z" fill="#7DA536"/>
<path d="M5.20763 26.4385C5.03526 26.4393 4.86341 26.4195 4.69575 26.3795C4.13394 26.2444 3.64839 25.8926 3.3451 25.4008C3.04182 24.9089 2.94543 24.3171 3.077 23.7545C3.96215 20.0291 5.72695 16.5701 8.22362 13.6669C10.7203 10.7638 13.8762 8.50108 17.427 7.06821C17.9541 6.89342 18.528 6.92565 19.0322 7.15836C19.5364 7.39107 19.9332 7.80684 20.1422 8.32135C20.3512 8.83587 20.3567 9.4106 20.1575 9.92899C19.9584 10.4474 19.5695 10.8706 19.0698 11.1129C16.1656 12.2847 13.5844 14.1354 11.5425 16.5099C9.50061 18.8845 8.05744 21.7137 7.33388 24.7607C7.21939 25.2385 6.94737 25.6639 6.56165 25.9683C6.17593 26.2726 5.69897 26.4383 5.20763 26.4385Z" fill="#7DA536"/>
<path d="M17.4986 20.0727C17.433 20.0727 17.3674 20.0727 17.3017 20.0727C17.0144 20.0479 16.7349 19.9666 16.4791 19.8335C16.2233 19.7003 15.9964 19.5179 15.8114 19.2967C15.6264 19.0755 15.487 18.8199 15.4011 18.5446C15.3153 18.2694 15.2847 17.9798 15.3111 17.6927L15.9674 10.2552L10.2033 7.58861C9.93229 7.47534 9.68687 7.30865 9.48168 7.09848C9.27648 6.88832 9.11572 6.63898 9.00896 6.36534C8.90221 6.09171 8.85166 5.79937 8.86033 5.50577C8.86899 5.21218 8.9367 4.92333 9.0594 4.65647C9.18211 4.3896 9.3573 4.15018 9.57453 3.95249C9.79176 3.75479 10.0466 3.60287 10.3238 3.50577C10.601 3.40868 10.8949 3.36842 11.1881 3.38737C11.4812 3.40633 11.7675 3.48412 12.0299 3.61611L19.2005 6.91486C19.6112 7.10426 19.9531 7.41631 20.1791 7.80806C20.4052 8.19981 20.5042 8.65199 20.4627 9.10236L19.6664 18.0799C19.618 18.6223 19.3689 19.1271 18.968 19.4956C18.5671 19.8642 18.0432 20.0699 17.4986 20.0727Z" fill="#7DA536"/>
<path d="M51.7517 63.1056C51.2429 63.1074 50.7494 62.9317 50.3561 62.6089C49.9629 62.2861 49.6945 61.8362 49.5971 61.3369C49.4997 60.8375 49.5794 60.3198 49.8226 59.8728C50.0657 59.4259 50.457 59.0777 50.9292 58.8881C53.8334 57.7163 56.4146 55.8656 58.4565 53.4911C60.4984 51.1166 61.9415 48.2873 62.6651 45.2403C62.8 44.6758 63.1536 44.188 63.6481 43.8842C64.1427 43.5805 64.7376 43.4856 65.3021 43.6205C65.8666 43.7554 66.3544 44.109 66.6582 44.6035C66.962 45.098 67.0569 45.693 66.922 46.2575C66.0359 49.9821 64.271 53.4404 61.7748 56.3434C59.2787 59.2463 56.1239 61.5095 52.5742 62.9438C52.313 63.0502 52.0337 63.1052 51.7517 63.1056Z" fill="#7DA536"/>
<path d="M58.8774 66.5859C58.5623 66.5862 58.2509 66.5175 57.9652 66.3846L50.7989 63.0859C50.3878 62.8968 50.0454 62.5849 49.819 62.1931C49.5925 61.8013 49.4932 61.349 49.5346 60.8984L50.3308 51.9143C50.3988 51.3494 50.6842 50.8333 51.1265 50.4754C51.5687 50.1175 52.133 49.9459 52.6996 49.9972C53.2662 50.0484 53.7906 50.3184 54.1614 50.7498C54.5323 51.1812 54.7205 51.7402 54.6861 52.308L54.0299 59.7565L59.7961 62.4121C60.2489 62.621 60.6167 62.9784 60.8386 63.4249C61.0605 63.8715 61.1232 64.3805 61.0162 64.8676C60.9093 65.3546 60.6391 65.7905 60.2505 66.103C59.8619 66.4155 59.376 66.5859 58.8774 66.5859Z" fill="#7DA536"/>
</svg>
