<svg width="70" height="70" viewBox="0 0 70 70" fill="none" xmlns="http://www.w3.org/2000/svg">
<path d="M60.5039 62.7995H9.58724C7.26677 62.7978 5.04182 61.8752 3.401 60.2344C1.76017 58.5936 0.837623 56.3687 0.835938 54.0482V15.8607C0.837623 13.5402 1.76017 11.3153 3.401 9.67443C5.04182 8.03361 7.26677 7.11106 9.58724 7.10938H60.5039C62.8244 7.11106 65.0493 8.03361 66.6901 9.67443C68.331 11.3153 69.2535 13.5402 69.2552 15.8607V54.0482C69.2535 56.3687 68.331 58.5936 66.6901 60.2344C65.0493 61.8752 62.8244 62.7978 60.5039 62.7995ZM9.58724 11.8828C8.53276 11.8845 7.52195 12.3041 6.77632 13.0498C6.03069 13.7954 5.61106 14.8062 5.60938 15.8607V54.0482C5.61106 55.1027 6.03069 56.1135 6.77632 56.8591C7.52195 57.6047 8.53276 58.0244 9.58724 58.026H60.5039C61.5584 58.0244 62.5692 57.6047 63.3148 56.8591C64.0605 56.1135 64.4801 55.1027 64.4818 54.0482V15.8607C64.4801 14.8062 64.0605 13.7954 63.3148 13.0498C62.5692 12.3041 61.5584 11.8845 60.5039 11.8828H9.58724Z" fill="#008024"/>
<path d="M66.8685 30.9766H3.22266C2.58966 30.9766 1.98259 30.7251 1.53499 30.2775C1.08739 29.8299 0.835938 29.2228 0.835938 28.5898C0.835938 27.9568 1.08739 27.3498 1.53499 26.9022C1.98259 26.4546 2.58966 26.2031 3.22266 26.2031H66.8685C67.5015 26.2031 68.1086 26.4546 68.5562 26.9022C69.0038 27.3498 69.2552 27.9568 69.2552 28.5898C69.2552 29.2228 69.0038 29.8299 68.5562 30.2775C68.1086 30.7251 67.5015 30.9766 66.8685 30.9766Z" fill="#008024"/>
<path d="M28.7386 43.8047H13.6641C13.0311 43.8047 12.424 43.5532 11.9764 43.1056C11.5288 42.658 11.2773 42.051 11.2773 41.418C11.2773 40.785 11.5288 40.1779 11.9764 39.7303C12.424 39.2827 13.0311 39.0312 13.6641 39.0312H28.7386C29.3716 39.0312 29.9786 39.2827 30.4262 39.7303C30.8738 40.1779 31.1253 40.785 31.1253 41.418C31.1253 42.051 30.8738 42.658 30.4262 43.1056C29.9786 43.5532 29.3716 43.8047 28.7386 43.8047Z" fill="#008024"/>
<path d="M22.374 53.3516H13.6641C13.0311 53.3516 12.424 53.1001 11.9764 52.6525C11.5288 52.2049 11.2773 51.5978 11.2773 50.9648C11.2773 50.3318 11.5288 49.7248 11.9764 49.2772C12.424 48.8296 13.0311 48.5781 13.6641 48.5781H22.374C23.007 48.5781 23.6141 48.8296 24.0617 49.2772C24.5093 49.7248 24.7607 50.3318 24.7607 50.9648C24.7607 51.5978 24.5093 52.2049 24.0617 52.6525C23.6141 53.1001 23.007 53.3516 22.374 53.3516Z" fill="#008024"/>
</svg>
