<svg width="58" height="58" viewBox="0 0 58 58" fill="none" xmlns="http://www.w3.org/2000/svg">
<path d="M28.9982 57.4394C23.1185 57.4376 17.3838 55.6133 12.5837 52.2176C7.78363 48.822 4.1541 44.0219 2.19478 38.4782C0.0131974 32.3438 0.0131974 25.6448 2.19478 19.5104C4.15748 13.9714 7.78856 9.17679 12.5883 5.7864C17.3881 2.396 23.1206 0.576447 28.9971 0.578126C34.8735 0.579805 40.605 2.40264 45.4028 5.79577C50.2007 9.18891 53.829 13.9856 55.7885 19.5257C57.9701 25.6593 57.9701 32.3576 55.7885 38.4913C53.8278 44.0304 50.1993 48.8262 45.402 52.2192C40.6047 55.6122 34.8742 57.4359 28.9982 57.4394ZM28.9982 4.93942C24.024 4.94098 19.1726 6.48403 15.1114 9.35625C11.0503 12.2285 7.97907 16.2887 6.32041 20.9782C4.4771 26.1633 4.4771 31.8253 6.32041 37.0104C7.97509 41.7029 11.0444 45.7668 15.1054 48.642C19.1665 51.5171 24.0192 53.062 28.995 53.0636C33.9708 53.0653 38.8246 51.5237 42.8875 48.6513C46.9505 45.7789 50.0226 41.7171 51.6804 37.0257C53.5237 31.8398 53.5237 26.1772 51.6804 20.9913C50.0237 16.2987 46.9527 12.2351 42.8905 9.36034C38.8283 6.48558 33.9747 4.94103 28.9982 4.93942Z" fill="#008024"/>
<path d="M28.999 57.4382C23.9131 57.4382 19.5534 51.812 17.3331 42.3882C17.2592 42.106 17.2425 41.8118 17.2839 41.523C17.3254 41.2341 17.4243 40.9566 17.5747 40.7065C17.7251 40.4565 17.924 40.2391 18.1596 40.0671C18.3953 39.895 18.663 39.7719 18.947 39.7049C19.231 39.638 19.5255 39.6285 19.8133 39.677C20.101 39.7256 20.376 39.8312 20.6223 39.9877C20.8686 40.1441 21.0811 40.3483 21.2473 40.5881C21.4134 40.828 21.53 41.0986 21.59 41.3842C23.4909 49.4517 26.6803 53.0632 28.999 53.0632C31.8428 53.0632 35.6556 47.5945 37.1365 37.4335C37.5519 34.642 37.7567 31.8231 37.749 29.0007C37.749 27.4542 37.7009 26.0782 37.6025 24.792C37.5762 24.5032 37.6076 24.2121 37.6948 23.9356C37.7821 23.659 37.9234 23.4026 38.1107 23.1812C38.2979 22.9598 38.5273 22.7778 38.7855 22.6459C39.0437 22.5139 39.3256 22.4346 39.6147 22.4126C39.9038 22.3905 40.1944 22.4262 40.4697 22.5175C40.7449 22.6088 40.9992 22.7539 41.2178 22.9443C41.4365 23.1348 41.6151 23.3669 41.7432 23.627C41.8714 23.8871 41.9465 24.1701 41.9643 24.4595C42.0715 25.8573 42.124 27.3426 42.124 29.0007C42.1318 32.0389 41.9124 35.0734 41.4678 38.0789C39.7178 50.016 34.9447 57.4382 28.999 57.4382Z" fill="#008024"/>
<path d="M18.2316 35.5625C17.6847 35.5648 17.1567 35.3622 16.7518 34.9945C16.3469 34.6269 16.0944 34.1209 16.0441 33.5762C15.9304 32.2331 15.8713 30.7369 15.8713 29C15.8635 25.9618 16.0829 22.9273 16.5275 19.9219C18.2775 7.98469 23.0507 0.5625 28.9963 0.5625C34.0932 0.5625 38.4463 6.19094 40.6425 15.6191C40.7742 16.1841 40.6761 16.7784 40.3696 17.2711C40.0632 17.7638 39.5736 18.1146 39.0085 18.2463C38.4434 18.3779 37.8492 18.2798 37.3565 17.9733C36.8638 17.6669 36.513 17.1773 36.3813 16.6122C34.7822 9.73687 31.7438 4.9375 28.9963 4.9375C26.1525 4.9375 22.3397 10.4063 20.8588 20.5672C20.4434 23.3588 20.2386 26.1777 20.2463 29C20.2463 30.5991 20.301 31.9663 20.4125 33.1738C20.4662 33.7502 20.289 34.3245 19.92 34.7706C19.551 35.2167 19.0201 35.4983 18.4438 35.5537C18.3672 35.5625 18.2994 35.5625 18.2316 35.5625Z" fill="#008024"/>
<path d="M13.6859 39.9375H4.25781C3.67765 39.9375 3.12125 39.707 2.71102 39.2968C2.30078 38.8866 2.07031 38.3302 2.07031 37.75C2.07031 37.1698 2.30078 36.6134 2.71102 36.2032C3.12125 35.793 3.67765 35.5625 4.25781 35.5625H13.6859C14.2661 35.5625 14.8225 35.793 15.2327 36.2032C15.643 36.6134 15.8734 37.1698 15.8734 37.75C15.8734 38.3302 15.643 38.8866 15.2327 39.2968C14.8225 39.707 14.2661 39.9375 13.6859 39.9375Z" fill="#008024"/>
<path d="M35.5609 22.4375H4.25781C3.67765 22.4375 3.12125 22.207 2.71102 21.7968C2.30078 21.3866 2.07031 20.8302 2.07031 20.25C2.07031 19.6698 2.30078 19.1134 2.71102 18.7032C3.12125 18.293 3.67765 18.0625 4.25781 18.0625H35.5609C36.1411 18.0625 36.6975 18.293 37.1077 18.7032C37.518 19.1134 37.7484 19.6698 37.7484 20.25C37.7484 20.8302 37.518 21.3866 37.1077 21.7968C36.6975 22.207 36.1411 22.4375 35.5609 22.4375Z" fill="#008024"/>
<path d="M53.7406 39.9375H22.4375C21.8573 39.9375 21.3009 39.707 20.8907 39.2968C20.4805 38.8866 20.25 38.3302 20.25 37.75C20.25 37.1698 20.4805 36.6134 20.8907 36.2032C21.3009 35.793 21.8573 35.5625 22.4375 35.5625H53.7406C54.3208 35.5625 54.8772 35.793 55.2874 36.2032C55.6977 36.6134 55.9281 37.1698 55.9281 37.75C55.9281 38.3302 55.6977 38.8866 55.2874 39.2968C54.8772 39.707 54.3208 39.9375 53.7406 39.9375Z" fill="#008024"/>
<path d="M53.7387 22.4375H44.3105C43.7304 22.4375 43.174 22.207 42.7637 21.7968C42.3535 21.3866 42.123 20.8302 42.123 20.25C42.123 19.6698 42.3535 19.1134 42.7637 18.7032C43.174 18.293 43.7304 18.0625 44.3105 18.0625H53.7387C54.3188 18.0625 54.8752 18.293 55.2855 18.7032C55.6957 19.1134 55.9262 19.6698 55.9262 20.25C55.9262 20.8302 55.6957 21.3866 55.2855 21.7968C54.8752 22.207 54.3188 22.4375 53.7387 22.4375Z" fill="#008024"/>
<path d="M39.9356 26.8125C38.6376 26.8125 37.3688 26.4276 36.2896 25.7065C35.2104 24.9854 34.3693 23.9605 33.8726 22.7614C33.3759 21.5622 33.2459 20.2427 33.4991 18.9697C33.7524 17.6967 34.3774 16.5274 35.2952 15.6096C36.2129 14.6918 37.3823 14.0668 38.6553 13.8136C39.9283 13.5604 41.2478 13.6903 42.4469 14.187C43.6461 14.6837 44.671 15.5249 45.3921 16.6041C46.1132 17.6833 46.498 18.9521 46.498 20.25C46.498 21.9905 45.8066 23.6597 44.5759 24.8904C43.3452 26.1211 41.676 26.8125 39.9356 26.8125ZM39.9356 18.0625C39.5029 18.0625 39.08 18.1908 38.7202 18.4312C38.3605 18.6715 38.0801 19.0132 37.9146 19.4129C37.749 19.8126 37.7057 20.2524 37.7901 20.6768C37.8745 21.1011 38.0828 21.4909 38.3888 21.7968C38.6947 22.1027 39.0845 22.3111 39.5088 22.3955C39.9331 22.4799 40.373 22.4366 40.7727 22.271C41.1724 22.1054 41.514 21.825 41.7544 21.4653C41.9948 21.1056 42.123 20.6827 42.123 20.25C42.123 19.6698 41.8926 19.1134 41.4823 18.7032C41.0721 18.293 40.5157 18.0625 39.9356 18.0625Z" fill="#008024"/>
<path d="M18.0625 44.3125C16.7646 44.3125 15.4958 43.9276 14.4166 43.2065C13.3374 42.4854 12.4962 41.4605 11.9995 40.2614C11.5028 39.0622 11.3729 37.7427 11.6261 36.4697C11.8793 35.1967 12.5043 34.0274 13.4221 33.1096C14.3399 32.1918 15.5092 31.5668 16.7822 31.3136C18.0552 31.0604 19.3747 31.1903 20.5739 31.687C21.773 32.1837 22.7979 33.0249 23.519 34.1041C24.2401 35.1833 24.625 36.4521 24.625 37.75C24.625 39.4905 23.9336 41.1597 22.7029 42.3904C21.4722 43.6211 19.803 44.3125 18.0625 44.3125ZM18.0625 35.5625C17.6299 35.5625 17.2069 35.6908 16.8472 35.9312C16.4875 36.1715 16.2071 36.5132 16.0415 36.9129C15.876 37.3126 15.8326 37.7524 15.917 38.1768C16.0014 38.6011 16.2098 38.9909 16.5157 39.2968C16.8216 39.6027 17.2114 39.8111 17.6357 39.8955C18.0601 39.9799 18.4999 39.9366 18.8996 39.771C19.2993 39.6054 19.641 39.325 19.8813 38.9653C20.1217 38.6056 20.25 38.1827 20.25 37.75C20.25 37.1698 20.0195 36.6134 19.6093 36.2032C19.1991 35.793 18.6427 35.5625 18.0625 35.5625Z" fill="#008024"/>
</svg>
