<svg width="71" height="70" viewBox="0 0 71 70" fill="none" xmlns="http://www.w3.org/2000/svg">
<g clip-path="url(#clip0_1411_7884)">
<path d="M56.6822 18.3022C53.2589 14.8783 49.1595 12.3779 44.6852 10.9204C44.754 10.4595 44.7909 9.99275 44.7909 9.52278C44.7909 4.27193 40.519 0 35.2681 0C30.0173 0 25.7459 4.27193 25.7459 9.52278C25.7459 9.99275 25.7827 10.4595 25.8511 10.9199C21.3773 12.3773 17.2778 14.8783 13.8545 18.3022C8.13425 24.0219 4.98438 31.6269 4.98438 39.7157C4.98438 47.8051 8.13425 55.4101 13.8545 61.1298C19.5743 66.8496 27.1793 70 35.2681 70C43.3575 70 50.9625 66.8501 56.6822 61.1298C62.402 55.4101 65.5524 47.8051 65.5524 39.7163C65.5524 31.6269 62.402 24.0219 56.6822 18.3022ZM35.2681 4.10156C38.2572 4.10156 40.6893 6.53366 40.6893 9.52278C40.6893 10.7949 40.2397 12.0312 39.4231 13.0043L35.2681 18.2338L31.1484 13.0476L31.1137 13.0043C30.2971 12.0318 29.8469 10.7949 29.8469 9.52278C29.8474 6.53366 32.279 4.10156 35.2681 4.10156ZM35.2681 65.8984C20.8315 65.8984 9.08594 54.1529 9.08594 39.7163C9.08594 28.0482 16.7587 18.1398 27.3235 14.7683C27.5173 15.0615 27.7262 15.3467 27.9531 15.6185L35.2681 24.8278L42.5836 15.6185C42.8106 15.3461 43.0194 15.061 43.2138 14.7672C53.778 18.1393 61.4508 28.0482 61.4508 39.7163C61.4508 54.1529 49.7053 65.8984 35.2681 65.8984Z" fill="#7DA536"/>
<path d="M37.3223 9.23119C37.3223 10.3655 36.4026 11.2852 35.2683 11.2852C34.1345 11.2852 33.2148 10.3655 33.2148 9.23119C33.2148 8.09738 34.1345 7.17773 35.2683 7.17773C36.4026 7.17773 37.3223 8.09738 37.3223 9.23119Z" fill="#7DA536"/>
<path d="M24.0814 34.4077C18.8305 34.4077 14.5586 38.6796 14.5586 43.93C14.5586 46.1554 15.3426 48.3194 16.7659 50.0262L24.0814 59.2355L31.3969 50.0262C32.8207 48.3194 33.6042 46.1554 33.6042 43.93C33.6042 38.6791 29.3322 34.4077 24.0814 34.4077ZM28.2363 47.412L24.0814 52.6415L19.9617 47.4547L19.9264 47.412C19.1098 46.439 18.6602 45.2021 18.6602 43.93C18.6602 40.9408 21.0923 38.5087 24.0814 38.5087C27.0705 38.5087 29.5021 40.9408 29.5021 43.93C29.5026 45.2026 29.0524 46.439 28.2363 47.412Z" fill="#7DA536"/>
<path d="M26.1342 43.6389C26.1342 44.7733 25.2151 45.6924 24.0808 45.6924C22.9465 45.6924 22.0273 44.7733 22.0273 43.6389C22.0273 42.5046 22.9465 41.585 24.0808 41.585C25.2151 41.585 26.1342 42.5046 26.1342 43.6389Z" fill="#7DA536"/>
<path d="M46.4246 26.2345C41.1737 26.2345 36.9023 30.5064 36.9023 35.7573C36.9023 37.9822 37.6858 40.1462 39.1096 41.853L46.4251 51.0623L53.7401 41.853C55.1639 40.1462 55.9479 37.9822 55.9479 35.7573C55.9474 30.5064 51.6754 26.2345 46.4246 26.2345ZM50.5796 39.2388L46.4246 44.4683L42.3049 39.2815L42.2702 39.2388C41.453 38.2657 41.0034 37.0294 41.0034 35.7573C41.0034 32.7682 43.4355 30.3361 46.4246 30.3361C49.4137 30.3361 51.8458 32.7682 51.8458 35.7573C51.8458 37.0294 51.3961 38.2657 50.5796 39.2388Z" fill="#7DA536"/>
<path d="M48.4785 35.4657C48.4785 36.6 47.5589 37.5197 46.4245 37.5197C45.2907 37.5197 44.3711 36.6 44.3711 35.4657C44.3711 34.3313 45.2907 33.4122 46.4245 33.4122C47.5589 33.4122 48.4785 34.3313 48.4785 35.4657Z" fill="#7DA536"/>
</g>
<defs>
<clipPath id="clip0_1411_7884">
<rect width="70" height="70" fill="white" transform="translate(0.335938)"/>
</clipPath>
</defs>
</svg>
