<svg width="70" height="70" viewBox="0 0 70 70" fill="none" xmlns="http://www.w3.org/2000/svg">
<path d="M21.875 63.4375H8.75C8.16984 63.4375 7.61344 63.207 7.2032 62.7968C6.79297 62.3866 6.5625 61.8302 6.5625 61.25V43.75C6.5625 43.1698 6.79297 42.6134 7.2032 42.2032C7.61344 41.793 8.16984 41.5625 8.75 41.5625H21.875C22.4552 41.5625 23.0116 41.793 23.4218 42.2032C23.832 42.6134 24.0625 43.1698 24.0625 43.75V61.25C24.0625 61.8302 23.832 62.3866 23.4218 62.7968C23.0116 63.207 22.4552 63.4375 21.875 63.4375ZM10.9375 59.0625H19.6875V45.9375H10.9375V59.0625Z" fill="#008024"/>
<path d="M41.5625 63.4375H28.4375C27.8573 63.4375 27.3009 63.207 26.8907 62.7968C26.4805 62.3866 26.25 61.8302 26.25 61.25V35C26.25 34.4198 26.4805 33.8634 26.8907 33.4532C27.3009 33.043 27.8573 32.8125 28.4375 32.8125H41.5625C42.1427 32.8125 42.6991 33.043 43.1093 33.4532C43.5195 33.8634 43.75 34.4198 43.75 35V61.25C43.75 61.8302 43.5195 62.3866 43.1093 62.7968C42.6991 63.207 42.1427 63.4375 41.5625 63.4375ZM30.625 59.0625H39.375V37.1875H30.625V59.0625Z" fill="#008024"/>
<path d="M61.25 63.4375H48.125C47.5448 63.4375 46.9884 63.207 46.5782 62.7968C46.168 62.3866 45.9375 61.8302 45.9375 61.25V26.25C45.9375 25.6698 46.168 25.1134 46.5782 24.7032C46.9884 24.293 47.5448 24.0625 48.125 24.0625H61.25C61.8302 24.0625 62.3866 24.293 62.7968 24.7032C63.207 25.1134 63.4375 25.6698 63.4375 26.25V61.25C63.4375 61.8302 63.207 62.3866 62.7968 62.7968C62.3866 63.207 61.8302 63.4375 61.25 63.4375ZM50.3125 59.0625H59.0625V28.4375H50.3125V59.0625Z" fill="#008024"/>
<path d="M61.25 17.5C60.6698 17.5 60.1134 17.2695 59.7032 16.8593C59.293 16.4491 59.0625 15.8927 59.0625 15.3125V10.9375H54.6875C54.1073 10.9375 53.5509 10.707 53.1407 10.2968C52.7305 9.88656 52.5 9.33016 52.5 8.75C52.5 8.16984 52.7305 7.61344 53.1407 7.2032C53.5509 6.79297 54.1073 6.5625 54.6875 6.5625H61.25C61.8302 6.5625 62.3866 6.79297 62.7968 7.2032C63.207 7.61344 63.4375 8.16984 63.4375 8.75V15.3125C63.4375 15.8927 63.207 16.4491 62.7968 16.8593C62.3866 17.2695 61.8302 17.5 61.25 17.5Z" fill="#008024"/>
<path d="M8.74929 37.1874C8.21204 37.1882 7.69329 36.9912 7.29193 36.6341C6.89058 36.277 6.63469 35.7846 6.57305 35.2509C6.5114 34.7172 6.64832 34.1795 6.95769 33.7403C7.26706 33.301 7.72725 32.991 8.25054 32.8693C8.61585 32.784 44.8955 24.1062 57.4037 9.51554C57.7877 9.09989 58.3178 8.84924 58.8828 8.81623C59.4477 8.78322 60.0034 8.97042 60.4333 9.33851C60.8631 9.7066 61.1335 10.2269 61.1878 10.7902C61.2421 11.3535 61.0759 11.9159 60.7243 12.3593C47.2865 28.0349 10.799 36.7652 9.25022 37.1305C9.08579 37.1675 8.91783 37.1866 8.74929 37.1874Z" fill="#008024"/>
</svg>
