<svg width="70" height="70" viewBox="0 0 70 70" fill="none" xmlns="http://www.w3.org/2000/svg">
<path d="M28.5938 35.0629L31.1591 38.2634C33.4093 36.4598 36.5937 36.4634 38.8392 38.2634L41.4046 35.0629C37.6834 32.0804 32.3553 32.048 28.5938 35.0629Z" fill="#7DA536"/>
<path d="M32.9492 41.0156H37.0508V45.1172H32.9492V41.0156Z" fill="#7DA536"/>
<path d="M18.3398 22.2627L20.9063 25.4621C28.8091 19.1222 41.1906 19.1222 49.0934 25.4621L51.6598 22.2627C42.2304 14.6979 27.7849 14.6855 18.3398 22.2627Z" fill="#7DA536"/>
<path d="M23.4727 28.6606L26.038 31.8607C31.2904 27.6504 38.7204 27.659 43.9621 31.8607L46.5275 28.6604C39.8296 23.2915 30.2428 23.2331 23.4727 28.6606Z" fill="#7DA536"/>
<path d="M0 57.5586H28.4949C27.6484 59.9456 25.3688 61.6602 22.6953 61.6602H20.6445V65.7617H49.3555V61.6602H47.3047C44.6312 61.6602 42.3516 59.9454 41.5051 57.5586H70V4.23828H0V57.5586ZM39.1063 61.6602H30.8937C31.7909 60.4674 32.4335 59.073 32.7422 57.5586H37.2578C37.5665 59.073 38.2091 60.4674 39.1063 61.6602ZM4.10156 8.33984H65.8984V53.457H4.10156V8.33984Z" fill="#7DA536"/>
</svg>
