<svg width="71" height="70" viewBox="0 0 71 70" fill="none" xmlns="http://www.w3.org/2000/svg">
<path d="M35.168 62.7812C34.5878 62.7812 34.0314 62.5508 33.6212 62.1405C33.2109 61.7303 32.9805 61.1739 32.9805 60.5938V39.375C32.9805 38.7948 33.2109 38.2384 33.6212 37.8282C34.0314 37.418 34.5878 37.1875 35.168 37.1875C35.7481 37.1875 36.3045 37.418 36.7148 37.8282C37.125 38.2384 37.3555 38.7948 37.3555 39.375V60.5938C37.3555 61.1739 37.125 61.7303 36.7148 62.1405C36.3045 62.5508 35.7481 62.7812 35.168 62.7812Z" fill="white"/>
<path d="M35.168 65.6526C34.5878 65.6526 34.0314 65.4221 33.6212 65.0119C33.2109 64.6016 32.9805 64.0452 32.9805 63.4651V60.431C32.9857 56.2325 34.656 52.2074 37.6251 49.2387C40.5941 46.2701 44.6194 44.6003 48.818 44.5957H57.918C58.4981 44.5957 59.0545 44.8262 59.4648 45.2364C59.875 45.6466 60.1055 46.203 60.1055 46.7832V47.7588C60.0954 52.1589 58.4185 56.3916 55.4124 59.6047C52.4064 62.8178 48.2945 64.7725 43.9048 65.0751L35.3123 65.6482C35.2642 65.6526 35.2161 65.6526 35.168 65.6526ZM48.818 48.9707C45.7794 48.9742 42.8662 50.1826 40.7174 52.3311C38.5685 54.4795 37.3595 57.3924 37.3555 60.431V61.1266L43.6139 60.711C46.6884 60.4979 49.5875 59.2012 51.7958 57.0514C54.004 54.9017 55.3781 52.0383 55.6736 48.9707H48.818Z" fill="white"/>
<path d="M35.168 65.6526C35.1198 65.6526 35.0717 65.6526 35.0236 65.6526L26.4311 65.0795C22.0407 64.7768 17.9282 62.8215 14.922 59.6075C11.9158 56.3935 10.2394 52.1596 10.2305 47.7588V46.7832C10.2305 46.203 10.4609 45.6466 10.8712 45.2364C11.2814 44.8262 11.8378 44.5957 12.418 44.5957H21.518C25.7165 44.6003 29.7418 46.2701 32.7109 49.2387C35.6799 52.2074 37.3503 56.2325 37.3555 60.431V63.4651C37.3555 64.0452 37.125 64.6016 36.7148 65.0119C36.3045 65.4221 35.7481 65.6526 35.168 65.6526ZM14.6623 48.9707C14.9579 52.0383 16.332 54.9017 18.5402 57.0514C20.7484 59.2012 23.6476 60.4979 26.722 60.711L32.9805 61.1266V60.431C32.9764 57.3924 31.7674 54.4795 29.6186 52.3311C27.4698 50.1826 24.5566 48.9742 21.518 48.9707H14.6623Z" fill="white"/>
<path d="M35.168 41.5625C31.4905 41.5625 27.8956 40.472 24.8378 38.4289C21.7801 36.3858 19.3969 33.4818 17.9896 30.0843C16.5823 26.6867 16.2141 22.9481 16.9315 19.3413C17.6489 15.7345 19.4198 12.4214 22.0202 9.82099C24.6206 7.22061 27.9337 5.44973 31.5405 4.73228C35.1474 4.01484 38.8859 4.38306 42.2835 5.79037C45.6811 7.19769 48.585 9.5809 50.6281 12.6386C52.6712 15.6964 53.7617 19.2913 53.7617 22.9688C53.7559 27.8983 51.7951 32.6244 48.3093 36.1101C44.8236 39.5959 40.0976 41.5567 35.168 41.5625ZM35.168 8.75001C32.3558 8.75001 29.6067 9.58392 27.2685 11.1463C24.9302 12.7087 23.1077 14.9293 22.0316 17.5275C20.9554 20.1256 20.6738 22.9845 21.2224 25.7427C21.7711 28.5009 23.1253 31.0344 25.1138 33.0229C27.1023 35.0115 29.6359 36.3657 32.394 36.9143C35.1522 37.4629 38.0111 37.1814 40.6093 36.1052C43.2074 35.029 45.4281 33.2065 46.9904 30.8683C48.5528 28.53 49.3867 25.781 49.3867 22.9688C49.3821 19.1991 47.8826 15.5852 45.217 12.9197C42.5515 10.2542 38.9376 8.75464 35.168 8.75001Z" fill="white"/>
<path d="M35.1685 65.649C34.7964 65.6484 34.4306 65.5529 34.1056 65.3715C33.7807 65.1901 33.5074 64.9288 33.3116 64.6124C33.1158 64.2959 33.004 63.9347 32.9867 63.563C32.9695 63.1913 33.0473 62.8213 33.2129 62.488C35.7099 58.1207 39.6258 54.739 44.3101 52.9046C44.8488 52.6891 45.451 52.6963 45.9843 52.9248C46.5176 53.1534 46.9383 53.5843 47.1538 54.123C47.3694 54.6617 47.3621 55.2639 47.1336 55.7972C46.9051 56.3306 46.4741 56.7512 45.9354 56.9668C42.2515 58.4212 39.1525 61.0541 37.122 64.4546C36.9385 64.8147 36.6588 65.1169 36.314 65.3278C35.9692 65.5386 35.5727 65.6498 35.1685 65.649Z" fill="white"/>
<path d="M35.1663 65.6242C34.7611 65.6248 34.3637 65.5128 34.0184 65.3008C33.6731 65.0887 33.3934 64.7849 33.2107 64.4233C31.1814 61.023 28.083 58.3907 24.3994 56.9376C24.1326 56.8309 23.8893 56.6727 23.6836 56.472C23.4779 56.2712 23.3137 56.032 23.2005 55.7678C23.0872 55.5036 23.0271 55.2197 23.0236 54.9323C23.0201 54.6449 23.0732 54.3597 23.1799 54.0928C23.2866 53.8259 23.4449 53.5827 23.6456 53.377C23.8463 53.1713 24.0856 53.0071 24.3498 52.8938C24.6139 52.7806 24.8978 52.7205 25.1852 52.717C25.4726 52.7134 25.7579 52.7665 26.0247 52.8733C30.7143 54.7057 34.6351 58.0885 37.1351 62.4589C37.3022 62.7933 37.3808 63.165 37.3634 63.5384C37.346 63.9119 37.2332 64.2746 37.0358 64.5921C36.8383 64.9095 36.5628 65.1711 36.2356 65.3518C35.9083 65.5324 35.5401 65.6262 35.1663 65.6242Z" fill="white"/>
<path d="M36.2617 31.7188H30.793C30.2128 31.7188 29.6564 31.4883 29.2462 31.078C28.8359 30.6678 28.6055 30.1114 28.6055 29.5312C28.6055 28.9511 28.8359 28.3947 29.2462 27.9845C29.6564 27.5742 30.2128 27.3438 30.793 27.3438H36.2617C36.5518 27.3438 36.83 27.2285 37.0351 27.0234C37.2402 26.8183 37.3555 26.5401 37.3555 26.25C37.3555 25.9599 37.2402 25.6817 37.0351 25.4766C36.83 25.2715 36.5518 25.1562 36.2617 25.1562H34.0742C32.6238 25.1562 31.2328 24.5801 30.2072 23.5545C29.1816 22.5289 28.6055 21.1379 28.6055 19.6875C28.6055 18.2371 29.1816 16.8461 30.2072 15.8205C31.2328 14.7949 32.6238 14.2188 34.0742 14.2188H39.543C40.1231 14.2188 40.6795 14.4492 41.0898 14.8595C41.5 15.2697 41.7305 15.8261 41.7305 16.4062C41.7305 16.9864 41.5 17.5428 41.0898 17.953C40.6795 18.3633 40.1231 18.5938 39.543 18.5938H34.0742C33.7841 18.5938 33.5059 18.709 33.3008 18.9141C33.0957 19.1192 32.9805 19.3974 32.9805 19.6875C32.9805 19.9776 33.0957 20.2558 33.3008 20.4609C33.5059 20.666 33.7841 20.7812 34.0742 20.7812H36.2617C37.7121 20.7812 39.1031 21.3574 40.1287 22.383C41.1543 23.4086 41.7305 24.7996 41.7305 26.25C41.7305 27.7004 41.1543 29.0914 40.1287 30.117C39.1031 31.1426 37.7121 31.7188 36.2617 31.7188Z" fill="white"/>
<path d="M35.168 18.5938C34.5878 18.5938 34.0314 18.3633 33.6212 17.953C33.2109 17.5428 32.9805 16.9864 32.9805 16.4062V13.125C32.9805 12.5448 33.2109 11.9884 33.6212 11.5782C34.0314 11.168 34.5878 10.9375 35.168 10.9375C35.7481 10.9375 36.3045 11.168 36.7148 11.5782C37.125 11.9884 37.3555 12.5448 37.3555 13.125V16.4062C37.3555 16.9864 37.125 17.5428 36.7148 17.953C36.3045 18.3633 35.7481 18.5938 35.168 18.5938Z" fill="white"/>
<path d="M35.168 35C34.5878 35 34.0314 34.7695 33.6212 34.3593C33.2109 33.9491 32.9805 33.3927 32.9805 32.8125V29.5312C32.9805 28.9511 33.2109 28.3947 33.6212 27.9845C34.0314 27.5742 34.5878 27.3438 35.168 27.3438C35.7481 27.3438 36.3045 27.5742 36.7148 27.9845C37.125 28.3947 37.3555 28.9511 37.3555 29.5312V32.8125C37.3555 33.3927 37.125 33.9491 36.7148 34.3593C36.3045 34.7695 35.7481 35 35.168 35Z" fill="white"/>
</svg>
