<svg width="71" height="70" viewBox="0 0 71 70" fill="none" xmlns="http://www.w3.org/2000/svg">
<path d="M62.082 66.3535H9.58203C9.00187 66.3535 8.44547 66.1231 8.03523 65.7128C7.625 65.3026 7.39453 64.7462 7.39453 64.166C7.39453 63.5859 7.625 63.0295 8.03523 62.6192C8.44547 62.209 9.00187 61.9785 9.58203 61.9785H62.082C62.6622 61.9785 63.2186 62.209 63.6288 62.6192C64.0391 63.0295 64.2695 63.5859 64.2695 64.166C64.2695 64.7462 64.0391 65.3026 63.6288 65.7128C63.2186 66.1231 62.6622 66.3535 62.082 66.3535Z" fill="white"/>
<path d="M59.1647 57.6035H12.498C11.9179 57.6035 11.3615 57.373 10.9513 56.9628C10.541 56.5526 10.3105 55.9962 10.3105 55.416C10.3105 54.8359 10.541 54.2795 10.9513 53.8692C11.3615 53.459 11.9179 53.2285 12.498 53.2285H59.1647C59.7449 53.2285 60.3013 53.459 60.7115 53.8692C61.1218 54.2795 61.3522 54.8359 61.3522 55.416C61.3522 55.9962 61.1218 56.5526 60.7115 56.9628C60.3013 57.373 59.7449 57.6035 59.1647 57.6035Z" fill="white"/>
<path d="M56.7799 28.4381H14.8849C13.168 28.4386 11.5031 27.8493 10.1689 26.7688C8.83467 25.6884 7.91213 24.1823 7.55574 22.5029C7.19935 20.8234 7.43074 19.0725 8.21117 17.5433C8.9916 16.0141 10.2737 14.7994 11.8428 14.1027L32.7903 4.79266C33.7482 4.36789 34.7845 4.14844 35.8324 4.14844C36.8803 4.14844 37.9165 4.36789 38.8745 4.79266L59.822 14.0997C61.39 14.7977 62.6709 16.0128 63.4504 17.5419C64.23 19.071 64.461 20.8213 64.1047 22.5003C63.7485 24.1792 62.8267 25.685 61.4934 26.7658C60.1601 27.8466 58.4962 28.437 56.7799 28.4381ZM35.8324 8.52016C35.3964 8.52054 34.9652 8.61193 34.5665 8.7885L13.619 18.1014C12.9666 18.3913 12.4335 18.8965 12.1091 19.5325C11.7846 20.1685 11.6885 20.8967 11.8368 21.5951C11.9851 22.2935 12.3688 22.9197 12.9236 23.369C13.4785 23.8183 14.1709 24.0633 14.8849 24.0631H56.7799C57.4933 24.0617 58.1847 23.8156 58.7387 23.366C59.2926 22.9164 59.6756 22.2904 59.8237 21.5925C59.9719 20.8945 59.8761 20.1669 59.5526 19.5311C59.229 18.8952 58.6971 18.3896 58.0457 18.0985L37.0982 8.79141C36.7002 8.6126 36.2687 8.52015 35.8324 8.52016Z" fill="white"/>
<path d="M29.998 57.6042C29.4179 57.6042 28.8615 57.3737 28.4513 56.9635C28.041 56.5532 27.8105 55.9968 27.8105 55.4167V26.25C27.8105 25.6698 28.041 25.1134 28.4513 24.7032C28.8615 24.293 29.4179 24.0625 29.998 24.0625C30.5782 24.0625 31.1346 24.293 31.5448 24.7032C31.9551 25.1134 32.1855 25.6698 32.1855 26.25V55.4167C32.1855 55.9968 31.9551 56.5532 31.5448 56.9635C31.1346 57.3737 30.5782 57.6042 29.998 57.6042Z" fill="white"/>
<path d="M18.332 57.6042C17.7519 57.6042 17.1955 57.3737 16.7852 56.9635C16.375 56.5532 16.1445 55.9968 16.1445 55.4167V26.25C16.1445 25.6698 16.375 25.1134 16.7852 24.7032C17.1955 24.293 17.7519 24.0625 18.332 24.0625C18.9122 24.0625 19.4686 24.293 19.8788 24.7032C20.2891 25.1134 20.5195 25.6698 20.5195 26.25V55.4167C20.5195 55.9968 20.2891 56.5532 19.8788 56.9635C19.4686 57.3737 18.9122 57.6042 18.332 57.6042Z" fill="white"/>
<path d="M53.332 57.6042C52.7519 57.6042 52.1955 57.3737 51.7852 56.9635C51.375 56.5532 51.1445 55.9968 51.1445 55.4167V26.25C51.1445 25.6698 51.375 25.1134 51.7852 24.7032C52.1955 24.293 52.7519 24.0625 53.332 24.0625C53.9122 24.0625 54.4686 24.293 54.8788 24.7032C55.2891 25.1134 55.5195 25.6698 55.5195 26.25V55.4167C55.5195 55.9968 55.2891 56.5532 54.8788 56.9635C54.4686 57.3737 53.9122 57.6042 53.332 57.6042Z" fill="white"/>
<path d="M41.666 57.6042C41.0859 57.6042 40.5295 57.3737 40.1192 56.9635C39.709 56.5532 39.4785 55.9968 39.4785 55.4167V26.25C39.4785 25.6698 39.709 25.1134 40.1192 24.7032C40.5295 24.293 41.0859 24.0625 41.666 24.0625C42.2462 24.0625 42.8026 24.293 43.2128 24.7032C43.623 25.1134 43.8535 25.6698 43.8535 26.25V55.4167C43.8535 55.9968 43.623 56.5532 43.2128 56.9635C42.8026 57.3737 42.2462 57.6042 41.666 57.6042Z" fill="white"/>
<path d="M35.8327 20.4173C37.4435 20.4173 38.7493 19.1115 38.7493 17.5007C38.7493 15.8898 37.4435 14.584 35.8327 14.584C34.2219 14.584 32.916 15.8898 32.916 17.5007C32.916 19.1115 34.2219 20.4173 35.8327 20.4173Z" fill="white"/>
</svg>
