<svg width="71" height="70" viewBox="0 0 71 70" fill="none" xmlns="http://www.w3.org/2000/svg">
<g clip-path="url(#clip0_1084_5414)">
<path d="M40.8008 26.7969C40.8008 22.2737 37.1209 18.5938 32.5977 18.5938C28.0745 18.5938 24.3945 22.2737 24.3945 26.7969C24.3945 31.3201 28.0745 35 32.5977 35C37.1209 35 40.8008 31.3201 40.8008 26.7969ZM32.5977 29.5312C31.0899 29.5312 29.8633 28.3046 29.8633 26.7969C29.8633 25.2891 31.0899 24.0625 32.5977 24.0625C34.1054 24.0625 35.332 25.2891 35.332 26.7969C35.332 28.3046 34.1054 29.5312 32.5977 29.5312Z" fill="#7DA536"/>
<path d="M32.5977 35C25.0588 35 18.9258 41.1332 18.9258 48.6719V51.4062H46.2695V48.6719C46.2695 41.1332 40.1365 35 32.5977 35ZM24.8631 45.9375C25.9917 42.7546 29.0327 40.4688 32.5977 40.4688C36.1626 40.4688 39.2036 42.7546 40.3322 45.9375H24.8631Z" fill="#7DA536"/>
<path d="M62.1289 32.2656V8.20312H40.8008C40.8008 3.67992 37.1209 0 32.5977 0C28.0745 0 24.3945 3.67992 24.3945 8.20312H0.332031V37.7344H5.80078C7.30852 37.7344 8.53516 38.961 8.53516 40.4688C8.53516 41.9765 7.30852 43.2031 5.80078 43.2031H0.332031V70H29.8633V64.5312C29.8633 63.0235 31.0899 61.7969 32.5977 61.7969C34.1054 61.7969 35.332 63.0235 35.332 64.5312V70H62.1289V48.6719C66.6521 48.6719 70.332 44.992 70.332 40.4688C70.332 35.9455 66.6521 32.2656 62.1289 32.2656ZM62.1289 43.2031H56.6602V64.5312H40.8008C40.8008 60.008 37.1209 56.3281 32.5977 56.3281C28.0745 56.3281 24.3945 60.008 24.3945 64.5312H5.80078V48.6719C10.324 48.6719 14.0039 44.992 14.0039 40.4688C14.0039 35.9455 10.324 32.2656 5.80078 32.2656V13.6719H29.8633V8.20312C29.8633 6.69539 31.0899 5.46875 32.5977 5.46875C34.1054 5.46875 35.332 6.69539 35.332 8.20312V13.6719H56.6602V37.7344H62.1289C63.6366 37.7344 64.8633 38.961 64.8633 40.4688C64.8633 41.9765 63.6366 43.2031 62.1289 43.2031Z" fill="#7DA536"/>
</g>
<defs>
<clipPath id="clip0_1084_5414">
<rect width="70" height="70" fill="white" transform="translate(0.332031)"/>
</clipPath>
</defs>
</svg>
