<svg width="71" height="70" viewBox="0 0 71 70" fill="none" xmlns="http://www.w3.org/2000/svg">
<path d="M12.1673 45.9375C10.0401 45.9375 7.99993 45.0925 6.49573 43.5883C4.99153 42.0841 4.14648 40.0439 4.14648 37.9167V32.0833C4.14648 29.9561 4.99153 27.9159 6.49573 26.4117C7.99993 24.9075 10.0401 24.0625 12.1673 24.0625H15.084C15.6618 24.0701 16.2138 24.3029 16.6224 24.7116C17.031 25.1202 17.2639 25.6722 17.2715 26.25V40.8333C17.2638 42.1847 16.7236 43.4785 15.768 44.4341C14.8125 45.3896 13.5187 45.9298 12.1673 45.9375ZM12.1673 28.4375C11.2004 28.4375 10.2731 28.8216 9.58932 29.5053C8.9056 30.1891 8.52148 31.1164 8.52148 32.0833V37.9167C8.52148 38.8836 8.9056 39.8109 9.58932 40.4947C10.2731 41.1784 11.2004 41.5625 12.1673 41.5625C12.3607 41.5625 12.5462 41.4857 12.6829 41.3489C12.8197 41.2122 12.8965 41.0267 12.8965 40.8333V28.4375H12.1673Z" fill="white"/>
<path d="M58.8346 45.9375H55.918C55.3402 45.9299 54.7881 45.6971 54.3795 45.2884C53.9709 44.8798 53.738 44.3278 53.7305 43.75V26.25C53.738 25.6722 53.9709 25.1202 54.3795 24.7116C54.7881 24.3029 55.3402 24.0701 55.918 24.0625H58.8346C60.9619 24.0625 63.002 24.9075 64.5062 26.4117C66.0104 27.9159 66.8555 29.9561 66.8555 32.0833V37.9167C66.8555 40.0439 66.0104 42.0841 64.5062 43.5883C63.002 45.0925 60.9619 45.9375 58.8346 45.9375ZM58.1055 41.5625H58.8346C59.8016 41.5625 60.7289 41.1784 61.4126 40.4947C62.0964 39.8109 62.4805 38.8836 62.4805 37.9167V32.0833C62.4805 31.1164 62.0964 30.1891 61.4126 29.5053C60.7289 28.8216 59.8016 28.4375 58.8346 28.4375H58.1055V41.5625Z" fill="white"/>
<path d="M55.9173 31.3542C55.3395 31.3466 54.7875 31.1137 54.3789 30.7051C53.9703 30.2965 53.7374 29.7445 53.7298 29.1667C53.7298 24.332 51.8093 19.6953 48.3906 16.2767C44.972 12.8581 40.3353 10.9375 35.5007 10.9375C30.666 10.9375 26.0293 12.8581 22.6107 16.2767C19.1921 19.6953 17.2715 24.332 17.2715 29.1667C17.2715 29.7468 17.041 30.3032 16.6308 30.7135C16.2205 31.1237 15.6641 31.3542 15.084 31.3542C14.5038 31.3542 13.9474 31.1237 13.5372 30.7135C13.127 30.3032 12.8965 29.7468 12.8965 29.1667C12.8965 23.1717 15.278 17.4222 19.5171 13.1831C23.7562 8.944 29.5057 6.5625 35.5007 6.5625C41.4956 6.5625 47.2451 8.944 51.4842 13.1831C55.7233 17.4222 58.1048 23.1717 58.1048 29.1667C58.0973 29.7445 57.8644 30.2965 57.4558 30.7051C57.0471 31.1137 56.4951 31.3466 55.9173 31.3542Z" fill="white"/>
<path d="M44.2513 60.5208H38.418C37.8378 60.5208 37.2814 60.2904 36.8712 59.8801C36.4609 59.4699 36.2305 58.9135 36.2305 58.3333C36.2305 57.7532 36.4609 57.1968 36.8712 56.7865C37.2814 56.3763 37.8378 56.1458 38.418 56.1458H44.2513C46.763 56.1381 49.1696 55.137 50.9456 53.361C52.7216 51.5849 53.7228 49.1783 53.7305 46.6667V43.75C53.7305 43.1698 53.9609 42.6134 54.3712 42.2032C54.7814 41.793 55.3378 41.5625 55.918 41.5625C56.4981 41.5625 57.0545 41.793 57.4648 42.2032C57.875 42.6134 58.1055 43.1698 58.1055 43.75V46.6667C58.1055 50.341 56.6458 53.8649 54.0477 56.463C51.4495 59.0612 47.9257 60.5208 44.2513 60.5208Z" fill="white"/>
<path d="M35.4997 46.6671C33.2579 46.7918 31.0539 46.0499 29.3438 44.5949C27.6336 43.14 26.5483 41.0833 26.3122 38.8504C26.2854 38.5631 26.3155 38.2734 26.4006 37.9977C26.4858 37.7221 26.6244 37.4659 26.8086 37.2438C26.9927 37.0217 27.2189 36.8381 27.474 36.7034C27.7291 36.5687 28.0083 36.4855 28.2956 36.4587C28.5828 36.4319 28.8726 36.4619 29.1482 36.5471C29.4239 36.6323 29.6801 36.7709 29.9022 36.9551C30.1243 37.1392 30.3079 37.3653 30.4426 37.6205C30.5773 37.8756 30.6604 38.1548 30.6872 38.4421C30.8335 39.5826 31.4172 40.6217 32.3151 41.3401C33.213 42.0584 34.3549 42.3997 35.4997 42.2921C36.6446 42.3997 37.7865 42.0584 38.6844 41.3401C39.5823 40.6217 40.166 39.5826 40.3122 38.4421C40.3391 38.1548 40.4222 37.8756 40.5569 37.6205C40.6916 37.3653 40.8752 37.1392 41.0973 36.9551C41.3194 36.7709 41.5756 36.6323 41.8512 36.5471C42.1269 36.4619 42.4166 36.4319 42.7039 36.4587C42.9912 36.4855 43.2703 36.5687 43.5255 36.7034C43.7806 36.8381 44.0067 37.0217 44.1909 37.2438C44.3751 37.4659 44.5137 37.7221 44.5989 37.9977C44.684 38.2734 44.7141 38.5631 44.6872 38.8504C44.4512 41.0833 43.3658 43.14 41.6557 44.5949C39.9456 46.0499 37.7416 46.7918 35.4997 46.6671Z" fill="white"/>
<path d="M35.5013 63.4368H32.5846C31.2309 63.4368 29.9327 62.8991 28.9754 61.9419C28.0182 60.9847 27.4805 59.6864 27.4805 58.3327C27.4805 56.979 28.0182 55.6807 28.9754 54.7235C29.9327 53.7663 31.2309 53.2285 32.5846 53.2285H35.5013C36.855 53.2285 38.1533 53.7663 39.1105 54.7235C40.0677 55.6807 40.6055 56.979 40.6055 58.3327C40.6055 59.6864 40.0677 60.9847 39.1105 61.9419C38.1533 62.8991 36.855 63.4368 35.5013 63.4368ZM32.5846 57.6035C32.3912 57.6035 32.2058 57.6803 32.069 57.8171C31.9323 57.9538 31.8555 58.1393 31.8555 58.3327C31.8555 58.5261 31.9323 58.7115 32.069 58.8483C32.2058 58.985 32.3912 59.0618 32.5846 59.0618H35.5013C35.6947 59.0618 35.8802 58.985 36.0169 58.8483C36.1536 58.7115 36.2305 58.5261 36.2305 58.3327C36.2305 58.1393 36.1536 57.9538 36.0169 57.8171C35.8802 57.6803 35.6947 57.6035 35.5013 57.6035H32.5846Z" fill="white"/>
<path d="M29.6667 29.1673C31.2775 29.1673 32.5833 27.8615 32.5833 26.2507C32.5833 24.6398 31.2775 23.334 29.6667 23.334C28.0558 23.334 26.75 24.6398 26.75 26.2507C26.75 27.8615 28.0558 29.1673 29.6667 29.1673Z" fill="white"/>
<path d="M41.3346 29.1673C42.9455 29.1673 44.2513 27.8615 44.2513 26.2507C44.2513 24.6398 42.9455 23.334 41.3346 23.334C39.7238 23.334 38.418 24.6398 38.418 26.2507C38.418 27.8615 39.7238 29.1673 41.3346 29.1673Z" fill="white"/>
</svg>
