<svg width="70" height="70" viewBox="0 0 70 70" fill="none" xmlns="http://www.w3.org/2000/svg">
<path d="M36.0597 67.9044C33.9136 67.9036 31.8382 67.1368 30.2072 65.7419L4.91509 44.2414C4.0564 43.5278 3.43262 42.572 3.12508 41.4986C2.81755 40.4253 2.84051 39.2841 3.19099 38.224C3.52767 37.1608 4.17224 36.2214 5.04309 35.5247C5.91395 34.8281 6.97193 34.4054 8.08311 34.3103L10.1484 34.1318C10.6467 34.0908 11.1111 33.8632 11.4488 33.4946C11.7865 33.1259 11.9725 32.6433 11.9697 32.1433V4.51927C11.9697 3.32069 12.4458 2.17119 13.2933 1.32366C14.1409 0.476136 15.2904 0 16.489 0H55.6327C56.8312 0 57.9807 0.476136 58.8283 1.32366C59.6758 2.17119 60.1519 3.32069 60.1519 4.51927V32.1479C60.1497 32.6478 60.3363 33.1301 60.6744 33.4984C61.0125 33.8666 61.4772 34.0937 61.9755 34.1341L64.034 34.3126C65.1477 34.3983 66.21 34.8169 67.0828 35.514C67.9556 36.2111 68.5986 37.1545 68.9284 38.2218C69.2693 39.2835 69.2874 40.4225 68.9805 41.4945C68.6736 42.5665 68.0554 43.5233 67.2043 44.2437L41.9144 65.7419C40.283 67.1376 38.2066 67.9046 36.0597 67.9044ZM16.489 4.51927V32.1433C16.4973 33.7753 15.8894 35.3503 14.7868 36.5534C13.6842 37.7566 12.1681 38.4993 10.5416 38.633L8.47402 38.8115C8.25211 38.8311 8.04092 38.9158 7.86702 39.055C7.69312 39.1943 7.56426 39.3818 7.49664 39.5941C7.42902 39.8063 7.42567 40.0339 7.487 40.248C7.54833 40.4622 7.6716 40.6535 7.84133 40.7978L33.1334 62.3005C33.9492 62.9982 34.9873 63.3817 36.0608 63.3817C37.1343 63.3817 38.1724 62.9982 38.9882 62.3005L64.278 40.8068C64.4486 40.6625 64.5726 40.4709 64.6343 40.2562C64.696 40.0415 64.6926 39.8133 64.6247 39.6005C64.5567 39.3877 64.4272 39.1998 64.2525 39.0606C64.0778 38.9213 63.8657 38.837 63.6431 38.8183L61.5845 38.6398C59.9572 38.5082 58.4398 37.7666 57.3361 36.5636C56.2323 35.3606 55.6239 33.785 55.6327 32.1524V4.51927H16.489Z" fill="#008024"/>
<path d="M36.0586 33.3516C34.4894 33.3516 32.9554 32.8862 31.6507 32.0143C30.346 31.1425 29.3291 29.9033 28.7287 28.4535C28.1283 27.0037 27.9713 25.4084 28.2776 23.8694C28.5839 22.3303 29.3397 20.9167 30.4495 19.8073C31.5593 18.6978 32.9731 17.9424 34.5122 17.6365C36.0513 17.3307 37.6466 17.4881 39.0962 18.0889C40.5458 18.6898 41.7847 19.707 42.6562 21.0119C43.5277 22.3169 43.9926 23.851 43.9922 25.4202C43.9922 26.0195 43.7541 26.5943 43.3303 27.018C42.9066 27.4418 42.3318 27.6799 41.7325 27.6799C41.1332 27.6799 40.5585 27.4418 40.1347 27.018C39.711 26.5943 39.4729 26.0195 39.4729 25.4202C39.4733 24.7448 39.2735 24.0845 38.8986 23.5227C38.5237 22.9609 37.9906 22.523 37.3668 22.2642C36.7429 22.0054 36.0563 21.9375 35.3939 22.069C34.7314 22.2005 34.1228 22.5255 33.6451 23.0029C33.1674 23.4803 32.842 24.0887 32.71 24.751C32.5781 25.4134 32.6456 26.1 32.904 26.724C33.1623 27.3481 33.5999 27.8814 34.1615 28.2567C34.723 28.632 35.3832 28.8323 36.0586 28.8323C36.6579 28.8323 37.2326 29.0703 37.6564 29.4941C38.0802 29.9179 38.3182 30.4926 38.3182 31.0919C38.3182 31.6912 38.0802 32.266 37.6564 32.6897C37.2326 33.1135 36.6579 33.3516 36.0586 33.3516Z" fill="#008024"/>
<path d="M36.0602 44.6942C33.9571 44.6918 31.9407 43.8551 30.4538 42.3677C28.9668 40.8803 28.1307 38.8638 28.1289 36.7606C28.1289 36.1613 28.367 35.5865 28.7907 35.1628C29.2145 34.739 29.7893 34.5009 30.3885 34.5009C30.9878 34.5009 31.5626 34.739 31.9863 35.1628C32.4101 35.5865 32.6482 36.1613 32.6482 36.7606C32.6477 37.4361 32.8477 38.0965 33.2227 38.6583C33.5977 39.2201 34.1309 39.6581 34.7548 39.9168C35.3788 40.1755 36.0655 40.2433 36.728 40.1117C37.3906 39.98 37.9991 39.6548 38.4768 39.1771C38.9544 38.6995 39.2796 38.0909 39.4113 37.4284C39.543 36.7659 39.4752 36.0792 39.2165 35.4552C38.9578 34.8312 38.5198 34.298 37.958 33.923C37.3961 33.548 36.7357 33.3481 36.0602 33.3485C35.4609 33.3485 34.8862 33.1105 34.4624 32.6867C34.0387 32.2629 33.8006 31.6882 33.8006 31.0889C33.8006 30.4896 34.0387 29.9149 34.4624 29.4911C34.8862 29.0673 35.4609 28.8293 36.0602 28.8293C37.1132 28.8115 38.1592 29.0035 39.1372 29.3942C40.1151 29.7849 41.0056 30.3663 41.7565 31.1047C42.5074 31.843 43.1038 32.7235 43.5109 33.6948C43.918 34.666 44.1277 35.7086 44.1277 36.7617C44.1277 37.8148 43.918 38.8574 43.5109 39.8287C43.1038 40.7999 42.5074 41.6804 41.7565 42.4187C41.0056 43.1571 40.1151 43.7386 39.1372 44.1292C38.1592 44.5199 37.1132 44.7119 36.0602 44.6942Z" fill="#008024"/>
<path d="M36.0604 48.039C35.4611 48.039 34.8864 47.8009 34.4626 47.3771C34.0388 46.9534 33.8008 46.3786 33.8008 45.7793V42.7401C33.8008 42.1408 34.0388 41.5661 34.4626 41.1423C34.8864 40.7185 35.4611 40.4805 36.0604 40.4805C36.6597 40.4805 37.2345 40.7185 37.6582 41.1423C38.082 41.5661 38.3201 42.1408 38.3201 42.7401V45.7793C38.3201 46.3786 38.082 46.9534 37.6582 47.3771C37.2345 47.8009 36.6597 48.039 36.0604 48.039Z" fill="#008024"/>
<path d="M36.0604 21.703C35.4611 21.703 34.8864 21.465 34.4626 21.0412C34.0388 20.6174 33.8008 20.0427 33.8008 19.4434V16.4042C33.8008 15.8049 34.0388 15.2301 34.4626 14.8064C34.8864 14.3826 35.4611 14.1445 36.0604 14.1445C36.6597 14.1445 37.2345 14.3826 37.6582 14.8064C38.082 15.2301 38.3201 15.8049 38.3201 16.4042V19.4434C38.3201 20.0427 38.082 20.6174 37.6582 21.0412C37.2345 21.465 36.6597 21.703 36.0604 21.703Z" fill="#008024"/>
</svg>
