<svg width="71" height="70" viewBox="0 0 71 70" fill="none" xmlns="http://www.w3.org/2000/svg">
<path d="M35.3314 43.0202C33.745 43.0202 32.1943 42.5498 30.8752 41.6684C29.5562 40.7871 28.5282 39.5344 27.9211 38.0688C27.314 36.6032 27.1552 34.9905 27.4647 33.4346C27.7742 31.8787 28.5381 30.4495 29.6598 29.3278C30.7815 28.206 32.2107 27.4421 33.7666 27.1326C35.3225 26.8232 36.9352 26.982 38.4008 27.5891C39.8664 28.1961 41.1191 29.2242 42.0005 30.5432C42.8818 31.8622 43.3522 33.413 43.3522 34.9994C43.3507 37.1261 42.5051 39.1654 41.0013 40.6692C39.4974 42.1731 37.4582 43.0186 35.3314 43.0202ZM35.3314 31.3535C34.6103 31.3535 33.9054 31.5673 33.3059 31.968C32.7063 32.3686 32.239 32.938 31.9631 33.6042C31.6871 34.2703 31.6149 35.0034 31.7556 35.7106C31.8963 36.4178 32.2435 37.0675 32.7534 37.5773C33.2633 38.0872 33.9129 38.4345 34.6201 38.5751C35.3273 38.7158 36.0604 38.6436 36.7266 38.3677C37.3928 38.0917 37.9622 37.6244 38.3628 37.0249C38.7634 36.4253 38.9772 35.7204 38.9772 34.9994C38.9757 34.0329 38.5911 33.1065 37.9077 32.4231C37.2243 31.7397 36.2978 31.3551 35.3314 31.3535Z" fill="#7DA536"/>
<path d="M24.1318 50.6323C23.62 50.6328 23.1244 50.4532 22.7318 50.1248C20.5137 48.2775 18.729 45.9649 17.5042 43.3509C16.2794 40.737 15.6445 37.8856 15.6445 34.999C15.6445 32.1123 16.2794 29.261 17.5042 26.647C18.729 24.0331 20.5137 21.7205 22.7318 19.8731C22.9513 19.6811 23.2071 19.5349 23.4839 19.4431C23.7608 19.3513 24.0533 19.3159 24.344 19.3388C24.6348 19.3617 24.9181 19.4426 25.1772 19.5766C25.4362 19.7106 25.6659 19.895 25.8526 20.1191C26.0394 20.3432 26.1794 20.6024 26.2645 20.8814C26.3496 21.1604 26.378 21.4536 26.3481 21.7437C26.3182 22.0339 26.2306 22.3151 26.0904 22.5709C25.9502 22.8267 25.7603 23.0518 25.5318 23.2331C23.8065 24.6702 22.4183 26.4691 21.4657 28.5024C20.513 30.5357 20.0192 32.7536 20.0192 34.999C20.0192 37.2444 20.513 39.4623 21.4657 41.4956C22.4183 43.5289 23.8065 45.3278 25.5318 46.7648C25.877 47.0526 26.1251 47.4398 26.2424 47.8736C26.3598 48.3074 26.3407 48.7668 26.1877 49.1894C26.0347 49.612 25.7553 49.9772 25.3875 50.2353C25.0197 50.4935 24.5812 50.6321 24.1318 50.6323Z" fill="#7DA536"/>
<path d="M16.6656 59.5868C16.155 59.5884 15.6602 59.4097 15.2685 59.0822C11.7353 56.142 8.89222 52.4603 6.94109 48.2983C4.98995 44.1363 3.97852 39.5959 3.97852 34.9993C3.97852 30.4026 4.98995 25.8623 6.94109 21.7003C8.89222 17.5383 11.7353 13.8566 15.2685 10.9164C15.716 10.5455 16.2925 10.3675 16.8713 10.4216C17.45 10.4758 17.9835 10.7576 18.3544 11.2051C18.7253 11.6526 18.9032 12.2291 18.8491 12.8078C18.7949 13.3865 18.5131 13.92 18.0656 14.291C15.0262 16.8209 12.5806 19.9886 10.9022 23.5694C9.22381 27.1502 8.35377 31.0563 8.35377 35.011C8.35377 38.9656 9.22381 42.8717 10.9022 46.4525C12.5806 50.0333 15.0262 53.201 18.0656 55.731C18.4063 56.0199 18.6504 56.4061 18.765 56.8378C18.8797 57.2696 18.8594 57.726 18.707 58.1459C18.5545 58.5658 18.2772 58.9289 17.9123 59.1865C17.5473 59.4441 17.1123 59.5838 16.6656 59.5868Z" fill="#7DA536"/>
<path d="M46.5325 50.6323C46.0831 50.6321 45.6447 50.4935 45.2768 50.2353C44.909 49.9772 44.6296 49.612 44.4766 49.1894C44.3237 48.7668 44.3045 48.3074 44.4219 47.8736C44.5393 47.4398 44.7874 47.0526 45.1325 46.7648C46.8578 45.3278 48.246 43.5289 49.1987 41.4956C50.1513 39.4623 50.6451 37.2444 50.6451 34.999C50.6451 32.7536 50.1513 30.5357 49.1987 28.5024C48.246 26.4691 46.8578 24.6702 45.1325 23.2331C44.904 23.0518 44.7141 22.8267 44.5739 22.5709C44.4337 22.3151 44.3461 22.0339 44.3162 21.7437C44.2863 21.4536 44.3147 21.1604 44.3998 20.8814C44.4849 20.6024 44.625 20.3432 44.8117 20.1191C44.9984 19.895 45.2281 19.7106 45.4872 19.5766C45.7463 19.4426 46.0295 19.3617 46.3203 19.3388C46.6111 19.3159 46.9035 19.3513 47.1804 19.4431C47.4573 19.5349 47.713 19.6811 47.9325 19.8731C50.1507 21.7205 51.9354 24.0331 53.1601 26.647C54.3849 29.261 55.0198 32.1123 55.0198 34.999C55.0198 37.8856 54.3849 40.737 53.1601 43.3509C51.9354 45.9649 50.1507 48.2775 47.9325 50.1248C47.5399 50.4532 47.0443 50.6328 46.5325 50.6323Z" fill="#7DA536"/>
<path d="M53.9982 59.5874C53.5488 59.5872 53.1103 59.4486 52.7425 59.1904C52.3746 58.9322 52.0952 58.567 51.9423 58.1445C51.7893 57.7219 51.7702 57.2625 51.8876 56.8287C52.0049 56.3949 52.253 56.0077 52.5982 55.7199C55.6376 53.1899 58.0832 50.0223 59.7616 46.4415C61.44 42.8607 62.31 38.9545 62.31 34.9999C62.31 31.0453 61.44 27.1391 59.7616 23.5583C58.0832 19.9776 55.6376 16.8099 52.5982 14.2799C52.3708 14.0984 52.1819 13.8733 52.0425 13.6179C51.9032 13.3624 51.8162 13.0818 51.7867 12.7923C51.7572 12.5028 51.7857 12.2104 51.8706 11.9321C51.9555 11.6538 52.095 11.3952 52.2811 11.1715C52.4672 10.9478 52.696 10.7634 52.9542 10.6293C53.2124 10.4951 53.4947 10.4138 53.7847 10.3901C54.0747 10.3664 54.3665 10.4008 54.6431 10.4912C54.9196 10.5817 55.1753 10.7265 55.3953 10.917C58.9285 13.8572 61.7716 17.5389 63.7227 21.7009C65.6738 25.8629 66.6853 30.4033 66.6853 34.9999C66.6853 39.5965 65.6738 44.1369 63.7227 48.2989C61.7716 52.4609 58.9285 56.1426 55.3953 59.0828C55.0035 59.4104 54.5088 59.5891 53.9982 59.5874Z" fill="#7DA536"/>
</svg>
