<svg width="70" height="70" viewBox="0 0 70 70" fill="none" xmlns="http://www.w3.org/2000/svg">
<path d="M29.2237 48.8529H11.6654C9.53858 48.8513 7.49935 48.0058 5.99549 46.5019C4.49162 44.998 3.64608 42.9588 3.64453 40.832V11.6654C3.64608 9.53858 4.49162 7.49935 5.99549 5.99549C7.49935 4.49162 9.53858 3.64608 11.6654 3.64453H52.4987C54.6255 3.64608 56.6647 4.49162 58.1686 5.99549C59.6724 7.49935 60.518 9.53858 60.5195 11.6654V30.5362C60.5195 31.1164 60.2891 31.6728 59.8788 32.083C59.4686 32.4932 58.9122 32.7237 58.332 32.7237C57.7519 32.7237 57.1955 32.4932 56.7852 32.083C56.375 31.6728 56.1445 31.1164 56.1445 30.5362V11.6654C56.143 10.6989 55.7584 9.77247 55.075 9.08908C54.3916 8.40568 53.4652 8.02107 52.4987 8.01953H11.6654C10.6989 8.02107 9.77247 8.40568 9.08908 9.08908C8.40568 9.77247 8.02107 10.6989 8.01953 11.6654V40.832C8.02107 41.7985 8.40568 42.7249 9.08908 43.4083C9.77247 44.0917 10.6989 44.4763 11.6654 44.4779H29.2237C29.8039 44.4779 30.3603 44.7083 30.7705 45.1186C31.1807 45.5288 31.4112 46.0852 31.4112 46.6654C31.4112 47.2455 31.1807 47.8019 30.7705 48.2122C30.3603 48.6224 29.8039 48.8529 29.2237 48.8529Z" fill="#008024"/>
<path d="M58.332 22.6016H5.83203C5.25187 22.6016 4.69547 22.3711 4.28524 21.9609C3.875 21.5506 3.64453 20.9942 3.64453 20.4141C3.64453 19.8339 3.875 19.2775 4.28524 18.8673C4.69547 18.457 5.25187 18.2266 5.83203 18.2266H58.332C58.9122 18.2266 59.4686 18.457 59.8788 18.8673C60.2891 19.2775 60.5195 19.8339 60.5195 20.4141C60.5195 20.9942 60.2891 21.5506 59.8788 21.9609C59.4686 22.3711 58.9122 22.6016 58.332 22.6016Z" fill="#008024"/>
<path d="M49.5833 66.3532C49.1867 66.3529 48.7977 66.245 48.4575 66.0411L42.3704 62.3894C39.4608 60.632 37.0529 58.1547 35.3788 55.1963C33.7047 52.2379 32.8209 48.8982 32.8125 45.499V37.9157C32.8126 37.3785 33.0104 36.8602 33.3681 36.4595C33.7258 36.0588 34.2184 35.8036 34.7521 35.7428C39.6124 35.3797 44.2499 33.558 48.0579 30.5161C48.4674 30.1175 49.0163 29.8945 49.5877 29.8945C50.1591 29.8945 50.708 30.1175 51.1175 30.5161C54.925 33.5518 59.5587 35.3701 64.4146 35.734C64.9498 35.7951 65.4436 36.0514 65.8015 36.454C66.1594 36.8566 66.3562 37.377 66.3542 37.9157V45.499C66.3443 48.8967 65.4597 52.2346 63.7857 55.1914C62.1117 58.1481 59.7046 60.624 56.7963 62.3807L50.7092 66.0323C50.3699 66.2393 49.9807 66.3502 49.5833 66.3532ZM37.1875 39.8115V45.499C37.1958 48.1409 37.8842 50.7362 39.1863 53.035C40.4884 55.3337 42.3604 57.2585 44.6221 58.624L49.5804 61.599L54.5387 58.624C56.8004 57.2585 58.6724 55.3337 59.9745 53.035C61.2767 50.7362 61.965 48.1409 61.9733 45.499V39.8144C57.523 39.1356 53.2858 37.4518 49.5833 34.8911C45.8791 37.4527 41.6398 39.1364 37.1875 39.8144V39.8115Z" fill="#008024"/>
</svg>
