<svg width="70" height="70" viewBox="0 0 70 70" fill="none" xmlns="http://www.w3.org/2000/svg">
<g clip-path="url(#clip0_1084_10273)">
<path d="M55.4336 29.4258C52.5498 25.3542 49.2848 21.9188 45.9916 19.4913C45.139 18.8628 44.2911 18.3048 43.4489 17.8162C43.8648 17.4878 44.264 17.1338 44.6439 16.7539C46.7665 14.6316 48.6718 12.3808 48.6718 8.20311V5.46874H45.9374C41.1143 5.46874 38.8475 4.33534 36.2228 3.02298C33.8445 1.83394 31.1992 0.512147 26.7968 0.117578L21.3281 0V7.05467C21.3281 11.4137 23.3786 15.3026 26.5656 17.8079C25.7185 18.2984 24.8657 18.8592 24.0083 19.4913C20.715 21.9188 17.4501 25.3542 14.5663 29.4258C8.52728 37.9524 4.92188 47.9984 4.92188 56.2992C4.92188 59.8754 6.04912 62.8078 8.27243 65.0148C10.6508 67.3758 14.2479 68.8464 19.2695 69.5105C23.3418 70.0492 27.8031 70.0165 32.1168 69.9851C36.5196 69.953 38.2465 70 40.9615 70C44.2854 70 47.6215 69.9217 50.7305 69.5104C55.752 68.8462 59.3492 67.3757 61.7276 65.0147C63.9509 62.8076 65.0781 59.8752 65.0781 56.299C65.078 47.9983 61.4726 37.9522 55.4336 29.4258ZM42.5763 10.7567C42.1938 11.4014 41.6137 12.0502 40.7771 12.8867C39.2482 14.4156 37.1966 15.2576 34.9999 15.2576C30.4767 15.2576 26.7968 11.5777 26.7968 7.05454V5.61065C29.8566 5.95409 31.705 6.87844 33.7771 7.9145C36.0404 9.04611 38.5448 10.2983 42.5763 10.7567ZM57.8746 61.1337C54.3461 64.6364 45.6216 64.5727 37.923 64.5165C35.307 64.4973 34.6907 64.4973 32.0766 64.5165C24.3784 64.5727 15.6535 64.6364 12.125 61.1337C10.9579 59.975 10.3903 58.3936 10.3903 56.299C10.3903 49.1958 13.7004 40.1096 19.0289 32.5866C24.1988 25.2869 30.3186 20.7522 34.9997 20.7522C39.6808 20.7522 45.8006 25.2869 50.9704 32.5866C56.2989 40.1098 59.609 49.1958 59.609 56.299C59.6093 58.3936 59.0417 59.975 57.8746 61.1337Z" fill="#7DA536"/>
<path d="M34.1797 34.5482C35.7575 34.0533 37.6088 35.0657 39.1329 37.256L43.6219 34.1325C42.1204 31.9746 40.3476 30.4619 38.3526 29.6362C38.1475 29.5513 37.9413 29.476 37.7345 29.4069V26.2207H32.2657V29.4233C28.9827 30.5803 26.797 33.6521 26.797 37.1582C26.797 41.6814 30.4769 45.3613 35.0001 45.3613C36.5079 45.3613 37.7345 46.588 37.7345 48.0957C37.7345 49.2976 36.9653 50.3465 35.8206 50.7057C34.2428 51.2006 32.3917 50.1885 30.8677 47.9985L26.3789 51.1222C27.8804 53.2798 29.653 54.7923 31.648 55.6178C31.8529 55.7026 32.059 55.7768 32.2657 55.8459V59.0332H37.7345V55.8306C41.0175 54.6737 43.2032 51.6017 43.2032 48.0957C43.2032 43.5725 39.5233 39.8926 35.0001 39.8926C33.4924 39.8926 32.2657 38.6659 32.2657 37.1582C32.2656 35.9562 33.0348 34.9074 34.1797 34.5482Z" fill="#7DA536"/>
</g>
<defs>
<clipPath id="clip0_1084_10273">
<rect width="70" height="70" fill="white"/>
</clipPath>
</defs>
</svg>
