<svg width="71" height="70" viewBox="0 0 71 70" fill="none" xmlns="http://www.w3.org/2000/svg">
<path d="M12.3333 45.9375C10.2061 45.9375 8.16595 45.0925 6.66175 43.5883C5.15755 42.0841 4.3125 40.0439 4.3125 37.9167V32.0833C4.3125 29.9561 5.15755 27.9159 6.66175 26.4117C8.16595 24.9075 10.2061 24.0625 12.3333 24.0625H15.25C15.8278 24.0701 16.3798 24.3029 16.7884 24.7116C17.1971 25.1202 17.4299 25.6722 17.4375 26.25V40.8333C17.4298 42.1847 16.8896 43.4785 15.9341 44.4341C14.9785 45.3896 13.6847 45.9298 12.3333 45.9375ZM12.3333 28.4375C11.3664 28.4375 10.4391 28.8216 9.75534 29.5053C9.07161 30.1891 8.6875 31.1164 8.6875 32.0833V37.9167C8.6875 38.8836 9.07161 39.8109 9.75534 40.4947C10.4391 41.1784 11.3664 41.5625 12.3333 41.5625C12.5267 41.5625 12.7122 41.4857 12.8489 41.3489C12.9857 41.2122 13.0625 41.0267 13.0625 40.8333V28.4375H12.3333Z" fill="#7DA536"/>
<path d="M58.9987 45.9375H56.082C55.5042 45.9299 54.9522 45.6971 54.5436 45.2884C54.135 44.8798 53.9021 44.3278 53.8945 43.75V26.25C53.9021 25.6722 54.135 25.1202 54.5436 24.7116C54.9522 24.3029 55.5042 24.0701 56.082 24.0625H58.9987C61.126 24.0625 63.1661 24.9075 64.6703 26.4117C66.1745 27.9159 67.0195 29.9561 67.0195 32.0833V37.9167C67.0195 40.0439 66.1745 42.0841 64.6703 43.5883C63.1661 45.0925 61.126 45.9375 58.9987 45.9375ZM58.2695 41.5625H58.9987C59.9656 41.5625 60.893 41.1784 61.5767 40.4947C62.2604 39.8109 62.6445 38.8836 62.6445 37.9167V32.0833C62.6445 31.1164 62.2604 30.1891 61.5767 29.5053C60.893 28.8216 59.9656 28.4375 58.9987 28.4375H58.2695V41.5625Z" fill="#7DA536"/>
<path d="M56.0833 31.3542C55.5055 31.3466 54.9535 31.1137 54.5449 30.7051C54.1363 30.2965 53.9034 29.7445 53.8958 29.1667C53.8958 24.332 51.9753 19.6953 48.5566 16.2767C45.138 12.8581 40.5013 10.9375 35.6667 10.9375C30.832 10.9375 26.1953 12.8581 22.7767 16.2767C19.3581 19.6953 17.4375 24.332 17.4375 29.1667C17.4375 29.7468 17.207 30.3032 16.7968 30.7135C16.3866 31.1237 15.8302 31.3542 15.25 31.3542C14.6698 31.3542 14.1134 31.1237 13.7032 30.7135C13.293 30.3032 13.0625 29.7468 13.0625 29.1667C13.0625 23.1717 15.444 17.4222 19.6831 13.1831C23.9222 8.944 29.6717 6.5625 35.6667 6.5625C41.6617 6.5625 47.4111 8.944 51.6502 13.1831C55.8893 17.4222 58.2708 23.1717 58.2708 29.1667C58.2633 29.7445 58.0304 30.2965 57.6218 30.7051C57.2132 31.1137 56.6611 31.3466 56.0833 31.3542Z" fill="#7DA536"/>
<path d="M44.4154 60.5208H38.582C38.0019 60.5208 37.4455 60.2904 37.0352 59.8801C36.625 59.4699 36.3945 58.9135 36.3945 58.3333C36.3945 57.7532 36.625 57.1968 37.0352 56.7865C37.4455 56.3763 38.0019 56.1458 38.582 56.1458H44.4154C46.927 56.1381 49.3336 55.137 51.1096 53.361C52.8857 51.5849 53.8868 49.1783 53.8945 46.6667V43.75C53.8945 43.1698 54.125 42.6134 54.5352 42.2032C54.9455 41.793 55.5019 41.5625 56.082 41.5625C56.6622 41.5625 57.2186 41.793 57.6288 42.2032C58.0391 42.6134 58.2695 43.1698 58.2695 43.75V46.6667C58.2695 50.341 56.8099 53.8649 54.2117 56.463C51.6136 59.0612 48.0897 60.5208 44.4154 60.5208Z" fill="#7DA536"/>
<path d="M35.6658 46.6667C33.4239 46.7914 31.2199 46.0495 29.5098 44.5946C27.7997 43.1396 26.7143 41.0829 26.4783 38.85C26.4514 38.5628 26.4815 38.273 26.5666 37.9974C26.6518 37.7217 26.7904 37.4655 26.9746 37.2434C27.1588 37.0213 27.3849 36.8377 27.64 36.703C27.8952 36.5683 28.1743 36.4852 28.4616 36.4584C28.7489 36.4315 29.0386 36.4616 29.3143 36.5467C29.5899 36.6319 29.8461 36.7705 30.0682 36.9547C30.2903 37.1389 30.4739 37.365 30.6086 37.6201C30.7433 37.8753 30.8264 38.1544 30.8533 38.4417C30.9995 39.5823 31.5832 40.6214 32.4811 41.3397C33.379 42.058 34.5209 42.3994 35.6658 42.2917C36.8106 42.3994 37.9525 42.058 38.8504 41.3397C39.7483 40.6214 40.332 39.5823 40.4783 38.4417C40.5051 38.1544 40.5882 37.8753 40.7229 37.6201C40.8576 37.365 41.0412 37.1389 41.2633 36.9547C41.4854 36.7705 41.7416 36.6319 42.0173 36.5467C42.2929 36.4616 42.5827 36.4315 42.8699 36.4584C43.1572 36.4852 43.4364 36.5683 43.6915 36.703C43.9466 36.8377 44.1728 37.0213 44.3569 37.2434C44.5411 37.4655 44.6797 37.7217 44.7649 37.9974C44.85 38.273 44.8801 38.5628 44.8533 38.85C44.6172 41.0829 43.5319 43.1396 41.8217 44.5946C40.1116 46.0495 37.9076 46.7914 35.6658 46.6667Z" fill="#7DA536"/>
<path d="M35.6654 63.4375H32.7487C31.395 63.4375 30.0967 62.8997 29.1395 61.9425C28.1823 60.9853 27.6445 59.687 27.6445 58.3333C27.6445 56.9796 28.1823 55.6813 29.1395 54.7241C30.0967 53.7669 31.395 53.2291 32.7487 53.2291H35.6654C37.0191 53.2291 38.3173 53.7669 39.2746 54.7241C40.2318 55.6813 40.7695 56.9796 40.7695 58.3333C40.7695 59.687 40.2318 60.9853 39.2746 61.9425C38.3173 62.8997 37.0191 63.4375 35.6654 63.4375ZM32.7487 57.6041C32.5553 57.6041 32.3698 57.6809 32.2331 57.8177C32.0964 57.9544 32.0195 58.1399 32.0195 58.3333C32.0195 58.5267 32.0964 58.7121 32.2331 58.8489C32.3698 58.9856 32.5553 59.0625 32.7487 59.0625H35.6654C35.8588 59.0625 36.0442 58.9856 36.181 58.8489C36.3177 58.7121 36.3945 58.5267 36.3945 58.3333C36.3945 58.1399 36.3177 57.9544 36.181 57.8177C36.0442 57.6809 35.8588 57.6041 35.6654 57.6041H32.7487Z" fill="#7DA536"/>
<path d="M29.8346 29.1667C31.4455 29.1667 32.7513 27.8609 32.7513 26.25C32.7513 24.6392 31.4455 23.3334 29.8346 23.3334C28.2238 23.3334 26.918 24.6392 26.918 26.25C26.918 27.8609 28.2238 29.1667 29.8346 29.1667Z" fill="#7DA536"/>
<path d="M41.4987 29.1667C43.1095 29.1667 44.4154 27.8609 44.4154 26.25C44.4154 24.6392 43.1095 23.3334 41.4987 23.3334C39.8879 23.3334 38.582 24.6392 38.582 26.25C38.582 27.8609 39.8879 29.1667 41.4987 29.1667Z" fill="#7DA536"/>
</svg>
