<svg width="70" height="70" viewBox="0 0 70 70" fill="none" xmlns="http://www.w3.org/2000/svg">
<path d="M25.8398 67.8125C24.3256 67.8125 22.8453 67.3635 21.5863 66.5222C20.3272 65.6809 19.3459 64.4852 18.7664 63.0862C18.1869 61.6872 18.0353 60.1478 18.3307 58.6626C18.6261 57.1774 19.3553 55.8132 20.4261 54.7425C21.4968 53.6717 22.861 52.9425 24.3462 52.6471C25.8314 52.3517 27.3708 52.5033 28.7698 53.0828C30.1688 53.6623 31.3645 54.6436 32.2058 55.9027C33.0471 57.1617 33.4961 58.642 33.4961 60.1563C33.4961 62.1868 32.6895 64.1342 31.2536 65.57C29.8178 67.0059 27.8704 67.8125 25.8398 67.8125ZM25.8398 56.875C25.1909 56.875 24.5565 57.0674 24.0169 57.428C23.4773 57.7885 23.0567 58.301 22.8084 58.9006C22.56 59.5001 22.495 60.1599 22.6216 60.7964C22.7483 61.4329 23.0608 62.0176 23.5197 62.4764C23.9785 62.9353 24.5632 63.2478 25.1997 63.3745C25.8362 63.5011 26.496 63.4361 27.0955 63.1877C27.6951 62.9394 28.2076 62.5188 28.5681 61.9792C28.9287 61.4396 29.1211 60.8052 29.1211 60.1563C29.1211 59.286 28.7754 58.4514 28.16 57.8361C27.5447 57.2207 26.7101 56.875 25.8398 56.875Z" fill="#008024"/>
<path d="M50.9961 67.8125C49.4818 67.8125 48.0016 67.3635 46.7425 66.5222C45.4834 65.6809 44.5021 64.4852 43.9226 63.0862C43.3432 61.6872 43.1915 60.1478 43.487 58.6626C43.7824 57.1774 44.5116 55.8132 45.5823 54.7425C46.6531 53.6717 48.0173 52.9425 49.5024 52.6471C50.9876 52.3517 52.527 52.5033 53.926 53.0828C55.325 53.6623 56.5208 54.6436 57.362 55.9027C58.2033 57.1617 58.6523 58.642 58.6523 60.1563C58.6523 62.1868 57.8457 64.1342 56.4099 65.57C54.9741 67.0059 53.0267 67.8125 50.9961 67.8125ZM50.9961 56.875C50.3471 56.875 49.7127 57.0674 49.1731 57.428C48.6335 57.7885 48.213 58.301 47.9646 58.9006C47.7163 59.5001 47.6513 60.1599 47.7779 60.7964C47.9045 61.4329 48.217 62.0176 48.6759 62.4764C49.1348 62.9353 49.7195 63.2478 50.356 63.3745C50.9925 63.5011 51.6522 63.4361 52.2518 63.1877C52.8513 62.9394 53.3638 62.5188 53.7244 61.9792C54.0849 61.4396 54.2773 60.8052 54.2773 60.1563C54.2773 59.286 53.9316 58.4514 53.3163 57.8361C52.7009 57.2207 51.8663 56.875 50.9961 56.875Z" fill="#008024"/>
<path d="M50.9961 56.875H19.2773C17.2468 56.875 15.2994 56.0684 13.8636 54.6325C12.4277 53.1967 11.6211 51.2493 11.6211 49.2188C11.6211 47.1882 12.4277 45.2408 13.8636 43.805C15.2994 42.3691 17.2468 41.5625 19.2773 41.5625H48.8086C49.3888 41.5625 49.9452 41.793 50.3554 42.2032C50.7656 42.6134 50.9961 43.1698 50.9961 43.75C50.9961 44.3302 50.7656 44.8866 50.3554 45.2968C49.9452 45.707 49.3888 45.9375 48.8086 45.9375H19.2773C18.4071 45.9375 17.5725 46.2832 16.9571 46.8986C16.3418 47.5139 15.9961 48.3485 15.9961 49.2188C15.9961 50.089 16.3418 50.9236 16.9571 51.5389C17.5725 52.1543 18.4071 52.5 19.2773 52.5H50.9961C51.5763 52.5 52.1327 52.7305 52.5429 53.1407C52.9531 53.5509 53.1836 54.1073 53.1836 54.6875C53.1836 55.2677 52.9531 55.8241 52.5429 56.2343C52.1327 56.6445 51.5763 56.875 50.9961 56.875Z" fill="#008024"/>
<path d="M50.7467 45.9375H22.5586C22.061 45.9375 21.5783 45.7677 21.1901 45.4563C20.802 45.1449 20.5316 44.7105 20.4236 44.2247L12.0586 6.56254H5.05859C4.47843 6.56254 3.92203 6.33207 3.5118 5.92183C3.10156 5.5116 2.87109 4.9552 2.87109 4.37504C2.87109 3.79488 3.10156 3.23848 3.5118 2.82824C3.92203 2.418 4.47843 2.18754 5.05859 2.18754H12.0586C13.0544 2.18347 14.0215 2.5215 14.798 3.14506C15.5744 3.76862 16.1132 4.63991 16.3242 5.61316L17.5077 10.9375H61.6536C62.5299 10.9376 63.3934 11.1483 64.1713 11.5519C64.9492 11.9555 65.6187 12.5401 66.1235 13.2564C66.6282 13.9728 66.9534 14.8 67.0717 15.6683C67.1899 16.5367 67.0978 17.4207 66.803 18.246L58.987 40.121C58.3792 41.8207 57.2616 43.2915 55.7868 44.3325C54.312 45.3735 52.5519 45.934 50.7467 45.9375ZM24.3086 41.5625H50.7467C51.6488 41.5624 52.5288 41.2834 53.2661 40.7637C54.0035 40.2441 54.5622 39.5092 54.8658 38.6597L62.6817 16.7847C62.7427 16.6192 62.7628 16.4414 62.7403 16.2665C62.7178 16.0916 62.6532 15.9247 62.5522 15.78C62.4513 15.6354 62.3168 15.5174 62.1603 15.436C62.0038 15.3546 61.83 15.3122 61.6536 15.3125H18.4789L24.3086 41.5625Z" fill="#008024"/>
</svg>
