<svg width="71" height="70" viewBox="0 0 71 70" fill="none" xmlns="http://www.w3.org/2000/svg">
<g clip-path="url(#clip0_764_11227)">
<path d="M25.783 69.9876C21.1345 70.1025 12.025 69.3819 9.04448 68.6737C7.01421 68.2458 5.10425 67.0632 3.66597 65.4185C2.24503 63.8144 1.35196 61.8121 1.10796 59.6831C1.10796 59.6626 1.10796 59.6421 1.10796 59.6202C0.952857 58.0851 0.904889 56.541 0.964406 54.9991C0.964406 54.9991 0.850929 53.6388 1.10796 51.171C1.10796 51.1505 1.10796 51.1286 1.10796 51.1081C1.32466 49.0819 2.23115 47.1917 3.67554 45.7542C5.12727 44.3009 7.03034 43.3848 9.07183 43.1566C12.0605 42.8407 21.1564 42.6671 25.7802 42.6685C30.4041 42.6698 37.8238 42.8394 40.8193 43.1566C42.8608 43.3848 44.7638 44.3009 46.2156 45.7542C47.6605 47.1924 48.5671 49.0836 48.7832 51.1108C48.7832 51.1314 48.7832 51.1519 48.79 51.1724C49.0484 53.6429 49.0128 55.0005 49.0128 55.0005C49.0201 56.5464 48.9457 58.0917 48.79 59.6298C48.79 59.6503 48.79 59.6708 48.7832 59.6927C48.5405 61.8238 47.6479 63.8286 46.2265 65.4349C44.7869 67.0755 42.8783 68.2608 40.8466 68.6888C37.858 69.3546 30.4232 70.0191 25.783 69.9876Z" fill="#008024"/>
<path d="M24.6693 39.1946C32.6513 39.1946 39.1219 32.724 39.1219 24.7421C39.1219 16.7602 32.6513 10.2896 24.6693 10.2896C16.6874 10.2896 10.2168 16.7602 10.2168 24.7421C10.2168 32.724 16.6874 39.1946 24.6693 39.1946Z" fill="#008024"/>
<path d="M45.7287 1.60021e-07C43.0763 -0.00039453 40.475 0.729342 38.2098 2.10924C35.9446 3.48914 34.103 5.46595 32.8867 7.82305C36.6669 9.65967 39.7234 12.7088 41.5691 16.4846C43.4148 20.2603 43.9435 24.5451 43.0709 28.6562C45.0468 29.0256 47.0779 28.9787 49.0346 28.5186C50.9914 28.0584 52.8306 27.1951 54.4347 25.9839C56.0388 24.7726 57.3727 23.24 58.3509 21.484C59.3291 19.728 59.9303 17.7873 60.1159 15.7858C60.3015 13.7843 60.0676 11.7661 59.429 9.8601C58.7904 7.95415 57.7612 6.20238 56.4072 4.71675C55.0532 3.23112 53.4041 2.04429 51.5654 1.23213C49.7267 0.419958 47.7388 0.000310323 45.7287 1.60021e-07Z" fill="#008024"/>
<path d="M70.0643 44.7069C70.0643 44.7069 70.0998 43.3521 69.8414 40.8788C69.8414 40.8569 69.8414 40.8364 69.8346 40.8159C69.6185 38.7887 68.7119 36.8975 67.267 35.4593C65.8153 34.0059 63.9122 33.0898 61.8707 32.8616C58.882 32.5444 51.4609 32.3722 46.8385 32.3735C45.4877 32.3735 43.7527 32.3872 41.9016 32.4159C40.8554 34.795 39.3297 36.9327 37.4199 38.6954C38.9512 38.7665 40.3006 38.8526 41.2754 38.9566C44.3022 39.2872 47.1254 40.6413 49.278 42.7948C51.4305 44.9483 52.7833 47.7722 53.1125 50.7991V50.8265V50.8552C53.2768 52.2899 53.3594 53.7328 53.36 55.1769C53.3682 55.9001 53.3436 57.5708 53.185 59.448C56.6467 59.1991 60.0865 58.7944 61.8926 58.3857C63.9242 57.9577 65.8328 56.7765 67.2725 55.1317C68.6928 53.5274 69.5853 51.5252 69.8291 49.3964C69.8291 49.3759 69.8291 49.354 69.8359 49.3335C69.9934 47.7964 70.0696 46.2521 70.0643 44.7069Z" fill="#008024"/>
</g>
<defs>
<clipPath id="clip0_764_11227">
<rect width="70" height="70" fill="white" transform="translate(0.5)"/>
</clipPath>
</defs>
</svg>
